<svg xmlns="http://www.w3.org/2000/svg" xmlns:xlink="http://www.w3.org/1999/xlink" contentStyleType="text/css" data-diagram-type="DESCRIPTION" height="550px" preserveAspectRatio="none" style="width:1336px;height:550px;background:#FFFFFF;" version="1.1" viewBox="0 0 1336 550" width="1336px" zoomAndPan="magnify"><defs/><g><!--cluster <<System>> Monopoly Deal Game--><g class="cluster" data-entity="..System.. Monopoly Deal Game" data-source-line="12" data-uid="ent0007" id="cluster_..System.. Monopoly Deal Game"><rect fill="none" height="537" rx="2.5" ry="2.5" style="stroke:#181818;stroke-width:1;" width="1062" x="268" y="7"/><text fill="#000000" font-family="sans-serif" font-size="14" font-weight="bold" lengthAdjust="spacing" textLength="248.1104" x="674.9448" y="21.9951">&#171;System&#187; Monopoly Deal Game</text></g><!--entity Start--><g class="entity" data-entity="Start" data-source-line="15" data-uid="ent0008" id="entity_Start"><ellipse cx="343.8013" cy="188.0236" fill="#F1F1F1" rx="59.8013" ry="14.5236" style="stroke:#181818;stroke-width:0.5;"/><text fill="#000000" font-family="sans-serif" font-size="14" lengthAdjust="spacing" textLength="80.3291" x="303.6367" y="192.6721">Start Game</text></g><!--entity Turn--><g class="entity" data-entity="Turn" data-source-line="16" data-uid="ent0009" id="entity_Turn"><ellipse cx="595.4571" cy="319.0236" fill="#F1F1F1" rx="49.4571" ry="14.5236" style="stroke:#181818;stroke-width:0.5;"/><text fill="#000000" font-family="sans-serif" font-size="14" lengthAdjust="spacing" textLength="65.7002" x="562.607" y="323.6721">Play Turn</text></g><!--entity EndTurn--><g class="entity" data-entity="EndTurn" data-source-line="17" data-uid="ent0010" id="entity_EndTurn"><ellipse cx="847.6251" cy="176.0236" fill="#F1F1F1" rx="47.6251" ry="14.5236" style="stroke:#181818;stroke-width:0.5;"/><text fill="#000000" font-family="sans-serif" font-size="14" lengthAdjust="spacing" textLength="63.1094" x="816.0704" y="180.6721">End Turn</text></g><!--entity CheckWin--><g class="entity" data-entity="CheckWin" data-source-line="18" data-uid="ent0011" id="entity_CheckWin"><ellipse cx="1088.4122" cy="176.0236" fill="#F1F1F1" rx="55.4122" ry="14.5236" style="stroke:#181818;stroke-width:0.5;"/><text fill="#000000" font-family="sans-serif" font-size="14" lengthAdjust="spacing" textLength="74.1221" x="1051.3512" y="180.6721">Check Win</text></g><!--entity Win--><g class="entity" data-entity="Win" data-source-line="19" data-uid="ent0012" id="entity_Win"><ellipse cx="1259.431" cy="176.0236" fill="#F1F1F1" rx="54.431" ry="14.5236" style="stroke:#181818;stroke-width:0.5;"/><text fill="#000000" font-family="sans-serif" font-size="14" lengthAdjust="spacing" textLength="72.7344" x="1223.0638" y="180.6721">Win Game</text></g><!--entity Setup--><g class="entity" data-entity="Setup" data-source-line="22" data-uid="ent0013" id="entity_Setup"><ellipse cx="595.4821" cy="188.0964" fill="#F1F1F1" rx="65.9821" ry="15.5964" style="stroke:#181818;stroke-width:0.5;"/><text fill="#000000" font-family="sans-serif" font-size="14" lengthAdjust="spacing" textLength="96.0586" x="547.4528" y="192.7448">Setup Players</text></g><!--entity Deck--><g class="entity" data-entity="Deck" data-source-line="23" data-uid="ent0014" id="entity_Deck"><ellipse cx="595.3122" cy="121.9624" fill="#F1F1F1" rx="65.3122" ry="15.4624" style="stroke:#181818;stroke-width:0.5;"/><text fill="#000000" font-family="sans-serif" font-size="14" lengthAdjust="spacing" textLength="94.2949" x="548.1647" y="126.6109">Prepare Deck</text></g><!--entity Deal--><g class="entity" data-entity="Deal" data-source-line="24" data-uid="ent0015" id="entity_Deal"><ellipse cx="595.6669" cy="57.0236" fill="#F1F1F1" rx="57.1669" ry="14.5236" style="stroke:#181818;stroke-width:0.5;"/><text fill="#000000" font-family="sans-serif" font-size="14" lengthAdjust="spacing" textLength="76.6035" x="557.3651" y="61.6721">Deal Cards</text></g><!--entity Draw--><g class="entity" data-entity="Draw" data-source-line="27" data-uid="ent0016" id="entity_Draw"><ellipse cx="847.4925" cy="265.0236" fill="#F1F1F1" rx="60.4925" ry="14.5236" style="stroke:#181818;stroke-width:0.5;"/><text fill="#000000" font-family="sans-serif" font-size="14" lengthAdjust="spacing" textLength="81.3066" x="806.8392" y="269.6721">Draw Cards</text></g><!--entity PlayCard--><g class="entity" data-entity="PlayCard" data-source-line="28" data-uid="ent0017" id="entity_PlayCard"><ellipse cx="847.6241" cy="408.0236" fill="#F1F1F1" rx="50.1241" ry="14.5236" style="stroke:#181818;stroke-width:0.5;"/><text fill="#000000" font-family="sans-serif" font-size="14" lengthAdjust="spacing" textLength="66.6436" x="814.3023" y="412.6721">Play Card</text></g><!--entity Discard--><g class="entity" data-entity="Discard" data-source-line="29" data-uid="ent0018" id="entity_Discard"><ellipse cx="595.581" cy="254.2162" fill="#F1F1F1" rx="66.581" ry="15.7162" style="stroke:#181818;stroke-width:0.5;"/><text fill="#000000" font-family="sans-serif" font-size="14" lengthAdjust="spacing" textLength="97.624" x="546.7689" y="258.8646">Discard Cards</text></g><!--entity Property--><g class="entity" data-entity="Property" data-source-line="32" data-uid="ent0019" id="entity_Property"><ellipse cx="595.4341" cy="384.1868" fill="#F1F1F1" rx="66.4341" ry="15.6868" style="stroke:#181818;stroke-width:0.5;"/><text fill="#000000" font-family="sans-serif" font-size="14" lengthAdjust="spacing" textLength="97.2412" x="546.8135" y="388.8353">Property Card</text></g><!--entity Money--><g class="entity" data-entity="Money" data-source-line="33" data-uid="ent0020" id="entity_Money"><ellipse cx="595.4653" cy="449.1931" fill="#F1F1F1" rx="61.4653" ry="14.6931" style="stroke:#181818;stroke-width:0.5;"/><text fill="#000000" font-family="sans-serif" font-size="14" lengthAdjust="spacing" textLength="83.8633" x="553.5336" y="453.8415">Money Card</text></g><!--entity Action--><g class="entity" data-entity="Action" data-source-line="34" data-uid="ent0021" id="entity_Action"><ellipse cx="595.6375" cy="513.0275" fill="#F1F1F1" rx="60.6375" ry="14.5275" style="stroke:#181818;stroke-width:0.5;"/><text fill="#000000" font-family="sans-serif" font-size="14" lengthAdjust="spacing" textLength="81.5391" x="554.868" y="517.6759">Action Card</text></g><!--entity Player--><g class="entity" data-entity="Player" data-source-line="5" data-uid="ent0002" id="entity_Player"><ellipse cx="193.5" cy="245" fill="#F1F1F1" rx="16" ry="16" style="stroke:#181818;stroke-width:0.5;"/><path d="M193.5,265 C197.5,265 200.5,265 204.5,261 C212.5,261 220.5,269 220.5,277 L220.5,281 C220.5,285 216.5,289 212.5,289 L174.5,289 C170.5,289 166.5,285 166.5,281 L166.5,277 C166.5,269 174.5,261 182.5,261 C186.5,265 189.5,265 193.5,265" fill="#F1F1F1" style="stroke:#181818;stroke-width:0.5;"/><text fill="#000000" font-family="sans-serif" font-size="14" lengthAdjust="spacing" textLength="43.5654" x="171.7173" y="302.4951">Player</text></g><!--entity Human--><g class="entity" data-entity="Human" data-source-line="6" data-uid="ent0003" id="entity_Human"><ellipse cx="55.2529" cy="189" fill="#F1F1F1" rx="16" ry="16" style="stroke:#181818;stroke-width:0.5;"/><path d="M55.2529,209 C59.2529,209 62.2529,209 66.2529,205 C74.2529,205 82.2529,213 82.2529,221 L82.2529,225 C82.2529,229 78.2529,233 74.2529,233 L36.2529,233 C32.2529,233 28.2529,229 28.2529,225 L28.2529,221 C28.2529,213 36.2529,205 44.2529,205 C48.2529,209 51.2529,209 55.2529,209" fill="#F1F1F1" style="stroke:#181818;stroke-width:0.5;"/><text fill="#000000" font-family="sans-serif" font-size="14" lengthAdjust="spacing" textLength="98.5059" x="6" y="246.4951">Human Player</text></g><!--entity AI--><g class="entity" data-entity="AI" data-source-line="7" data-uid="ent0004" id="entity_AI"><ellipse cx="55.3608" cy="301" fill="#F1F1F1" rx="16" ry="16" style="stroke:#181818;stroke-width:0.5;"/><path d="M55.3608,321 C59.3608,321 62.3608,321 66.3608,317 C74.3608,317 82.3608,325 82.3608,333 L82.3608,337 C82.3608,341 78.3608,345 74.3608,345 L36.3608,345 C32.3608,345 28.3608,341 28.3608,337 L28.3608,333 C28.3608,325 36.3608,317 44.3608,317 C48.3608,321 51.3608,321 55.3608,321" fill="#F1F1F1" style="stroke:#181818;stroke-width:0.5;"/><text fill="#000000" font-family="sans-serif" font-size="14" lengthAdjust="spacing" textLength="61.7217" x="24.5" y="358.4951">AI Player</text></g><!--link Human to Player--><g class="link" data-entity-1="Human" data-entity-2="Player" data-source-line="9" data-uid="lnk5" id="link_Human_Player"><path d="M105.21,231.06 C125.64,239.47 143.0521,246.6352 160.2921,253.7352" fill="none" id="Human-to-Player" style="stroke:#181818;stroke-width:1;"/><polygon fill="#181818" points="165.84,256.02,159.0413,248.8941,161.2167,254.116,155.9949,256.2914,165.84,256.02" style="stroke:#181818;stroke-width:1;"/></g><!--link AI to Player--><g class="link" data-entity-1="AI" data-entity-2="Player" data-source-line="10" data-uid="lnk6" id="link_AI_Player"><path d="M86.68,310.57 C110.32,300.84 137.3313,289.7129 160.0813,280.3529" fill="none" id="AI-to-Player" style="stroke:#181818;stroke-width:1;"/><polygon fill="#181818" points="165.63,278.07,155.785,277.7952,161.0061,279.9724,158.8288,285.1935,165.63,278.07" style="stroke:#181818;stroke-width:1;"/></g><!--link Player to Start--><g class="link" data-entity-1="Player" data-entity-2="Start" data-source-line="38" data-uid="lnk22" id="link_Player_Start"><path d="M221.05,252.88 C248.58,238.23 285.9829,218.328 312.8629,204.028" fill="none" id="Player-to-Start" style="stroke:#181818;stroke-width:1;"/><polygon fill="#181818" points="318.16,201.21,308.3357,201.9056,313.7458,203.5583,312.0931,208.9684,318.16,201.21" style="stroke:#181818;stroke-width:1;"/></g><!--link Player to Turn--><g class="link" data-entity-1="Player" data-entity-2="Turn" data-source-line="39" data-uid="lnk23" id="link_Player_Turn"><path d="M221.05,270.45 C288.41,279.21 460.51,301.5867 544.07,312.4467" fill="none" id="Player-to-Turn" style="stroke:#181818;stroke-width:1;"/><polygon fill="#181818" points="550.02,313.22,541.6106,308.0934,545.0617,312.5756,540.5795,316.0267,550.02,313.22" style="stroke:#181818;stroke-width:1;"/></g><!--link Start to Turn--><g class="link" data-entity-1="Start" data-entity-2="Turn" data-source-line="42" data-uid="lnk24" id="link_Start_Turn"><path d="M372.49,200.93 C403.69,215.87 455.86,241.66 499,267 C512.82,275.11 515.1,279.02 529,287 C541.4,294.12 550.196,298.6248 562.206,304.3048" fill="none" id="Start-to-Turn" style="stroke:#181818;stroke-width:1;"/><polygon fill="#181818" points="567.63,306.87,561.2042,299.4062,563.11,304.7323,557.7839,306.6382,567.63,306.87" style="stroke:#181818;stroke-width:1;"/></g><!--link CheckWin to Win--><g class="link" data-entity-1="CheckWin" data-entity-2="Win" data-source-line="43" data-uid="lnk25" id="link_CheckWin_Win"><path d="M1144.37,176 C1163.74,176 1179.49,176 1198.77,176" fill="none" id="CheckWin-to-Win" style="stroke:#181818;stroke-width:1;"/><polygon fill="#181818" points="1204.77,176,1195.77,172,1199.77,176,1195.77,180,1204.77,176" style="stroke:#181818;stroke-width:1;"/></g><!--link Start to Setup--><g class="link" data-entity-1="Start" data-entity-2="Setup" data-source-line="46" data-uid="lnk26" id="link_Start_Setup"><path d="M404.13,188 C441.74,188 484.47,188 523.22,188" fill="none" id="Start-to-Setup" style="stroke:#181818;stroke-width:1;"/><polygon fill="#181818" points="529.22,188,520.22,184,524.22,188,520.22,192,529.22,188" style="stroke:#181818;stroke-width:1;"/><text fill="#000000" font-family="sans-serif" font-size="13" lengthAdjust="spacing" textLength="63.0068" x="435" y="184.0669">&#171;include&#187;</text></g><!--link Start to Deck--><g class="link" data-entity-1="Start" data-entity-2="Deck" data-source-line="47" data-uid="lnk27" id="link_Start_Deck"><path d="M385.09,177.4 C430.54,165.37 498.5995,147.3645 545.3595,134.9945" fill="none" id="Start-to-Deck" style="stroke:#181818;stroke-width:1;"/><polygon fill="#181818" points="551.16,133.46,541.4363,131.8947,546.3263,134.7387,543.4823,139.6287,551.16,133.46" style="stroke:#181818;stroke-width:1;"/><text fill="#000000" font-family="sans-serif" font-size="13" lengthAdjust="spacing" textLength="63.0068" x="435" y="146.0669">&#171;include&#187;</text></g><!--link Start to Deal--><g class="link" data-entity-1="Start" data-entity-2="Deal" data-source-line="48" data-uid="lnk28" id="link_Start_Deal"><path d="M362.33,174.03 C379.74,160.41 407.71,139.65 434,125 C476.16,101.51 522.459,82.9617 555.619,70.7617" fill="none" id="Start-to-Deal" style="stroke:#181818;stroke-width:1;"/><polygon fill="#181818" points="561.25,68.69,551.4224,68.0436,556.5575,70.4164,554.1847,75.5516,561.25,68.69" style="stroke:#181818;stroke-width:1;"/><text fill="#000000" font-family="sans-serif" font-size="13" lengthAdjust="spacing" textLength="63.0068" x="435" y="90.0669">&#171;include&#187;</text></g><!--link Turn to Draw--><g class="link" data-entity-1="Turn" data-entity-2="Draw" data-source-line="51" data-uid="lnk29" id="link_Turn_Draw"><path d="M635.84,310.5 C680.94,300.76 748.8454,286.0974 796.0454,275.8974" fill="none" id="Turn-to-Draw" style="stroke:#181818;stroke-width:1;"/><polygon fill="#181818" points="801.91,274.63,792.2682,272.6213,797.0228,275.6861,793.958,280.4408,801.91,274.63" style="stroke:#181818;stroke-width:1;"/><text fill="#000000" font-family="sans-serif" font-size="13" lengthAdjust="spacing" textLength="63.0068" x="693" y="282.0669">&#171;include&#187;</text></g><!--link Turn to PlayCard--><g class="link" data-entity-1="Turn" data-entity-2="PlayCard" data-source-line="52" data-uid="lnk30" id="link_Turn_PlayCard"><path d="M631.94,328.84 C664.71,338.21 714.61,353.21 757,369 C778.6,377.04 797.0534,385.0549 814.7234,393.1349" fill="none" id="Turn-to-PlayCard" style="stroke:#181818;stroke-width:1;"/><polygon fill="#181818" points="820.18,395.63,813.6586,388.2496,815.6329,393.5507,810.3317,395.525,820.18,395.63" style="stroke:#181818;stroke-width:1;"/><text fill="#000000" font-family="sans-serif" font-size="13" lengthAdjust="spacing" textLength="63.0068" x="693" y="345.0669">&#171;include&#187;</text></g><!--link Turn to EndTurn--><g class="link" data-entity-1="Turn" data-entity-2="EndTurn" data-source-line="53" data-uid="lnk31" id="link_Turn_EndTurn"><path d="M624.78,307.14 C636.66,301.67 650.39,294.68 662,287 C676.72,277.27 677.52,271.09 692,261 C734.83,231.16 783.7382,205.9717 815.2382,190.7417" fill="none" id="Turn-to-EndTurn" style="stroke:#181818;stroke-width:1;"/><polygon fill="#181818" points="820.64,188.13,810.7962,188.4464,816.1385,190.3064,814.2785,195.6487,820.64,188.13" style="stroke:#181818;stroke-width:1;"/><text fill="#000000" font-family="sans-serif" font-size="13" lengthAdjust="spacing" textLength="63.0068" x="693" y="219.0669">&#171;include&#187;</text></g><!--link Property to PlayCard--><g class="link" data-entity-1="Property" data-entity-2="PlayCard" data-source-line="56" data-uid="lnk32" id="link_Property_PlayCard"><path d="M657.34,389.84 C701.13,394.04 753.3674,399.0568 793.5874,402.9168" fill="none" id="Property-to-PlayCard" style="stroke:#181818;stroke-width:1;"/><polygon fill="#181818" points="799.56,403.49,790.9833,398.6485,794.5829,403.0123,790.219,406.6119,799.56,403.49" style="stroke:#181818;stroke-width:1;"/><text fill="#000000" font-family="sans-serif" font-size="13" lengthAdjust="spacing" textLength="61.1851" x="694" y="390.0669">&#171;extend&#187;</text></g><!--link Money to PlayCard--><g class="link" data-entity-1="Money" data-entity-2="PlayCard" data-source-line="57" data-uid="lnk33" id="link_Money_PlayCard"><path d="M647.87,441.3 C679.39,436.5 720.56,430.09 757,424 C772.57,421.4 783.7255,419.456 798.7355,416.746" fill="none" id="Money-to-PlayCard" style="stroke:#181818;stroke-width:1;"/><polygon fill="#181818" points="804.64,415.68,795.0725,413.3427,799.7196,416.5684,796.4939,421.2154,804.64,415.68" style="stroke:#181818;stroke-width:1;"/><text fill="#000000" font-family="sans-serif" font-size="13" lengthAdjust="spacing" textLength="61.1851" x="694" y="420.0669">&#171;extend&#187;</text></g><!--link Action to PlayCard--><g class="link" data-entity-1="Action" data-entity-2="PlayCard" data-source-line="58" data-uid="lnk34" id="link_Action_PlayCard"><path d="M635.9,502.07 C668.89,492.37 716.89,476.97 757,459 C781.64,447.96 803.2573,435.3725 821.0273,424.3025" fill="none" id="Action-to-PlayCard" style="stroke:#181818;stroke-width:1;"/><polygon fill="#181818" points="826.12,421.13,816.366,422.4937,821.8761,423.7738,820.596,429.2839,826.12,421.13" style="stroke:#181818;stroke-width:1;"/><text fill="#000000" font-family="sans-serif" font-size="13" lengthAdjust="spacing" textLength="61.1851" x="694" y="455.0669">&#171;extend&#187;</text></g><!--link Discard to EndTurn--><g class="link" data-entity-1="Discard" data-entity-2="EndTurn" data-source-line="61" data-uid="lnk35" id="link_Discard_EndTurn"><path d="M628.73,240.42 C639.75,235.1 651.85,228.47 662,221 C677.44,209.64 674.7,198.27 692,190 C726.26,173.62 763.6529,170.8449 795.7229,171.8349" fill="none" id="Discard-to-EndTurn" style="stroke:#181818;stroke-width:1;"/><polygon fill="#181818" points="801.72,172.02,792.8477,167.7442,796.7224,171.8657,792.6009,175.7404,801.72,172.02" style="stroke:#181818;stroke-width:1;"/><text fill="#000000" font-family="sans-serif" font-size="13" lengthAdjust="spacing" textLength="61.1851" x="694" y="170.0669">&#171;extend&#187;</text></g><!--link EndTurn to CheckWin--><g class="link" data-entity-1="EndTurn" data-entity-2="CheckWin" data-source-line="62" data-uid="lnk36" id="link_EndTurn_CheckWin"><path d="M895.15,176 C934.54,176 985.02,176 1026.59,176" fill="none" id="EndTurn-to-CheckWin" style="stroke:#181818;stroke-width:1;"/><polygon fill="#181818" points="1032.59,176,1023.59,172,1027.59,176,1023.59,180,1032.59,176" style="stroke:#181818;stroke-width:1;"/><text fill="#000000" font-family="sans-serif" font-size="13" lengthAdjust="spacing" textLength="63.0068" x="939" y="172.0669">&#171;include&#187;</text></g><!--SRC=[VLDTQnD157sVNt79Yq_z0n8NGYlQ1w4GmUTXTveisPqDCxF4888YbhHHK2pwfCMt88WKAbHI-ckw6_FKl-1yx4ncDrttQUuzP-uzzyxPX1mA41cmU30K4CMCX2BEAEAZc8unmodm8OwoIKm7S8WJJZm4Xo9ZVJ5D2E09uLbA4D8vw1maU4fO1p07SxJ0upp553nO9opQs_UXtZv2Xh-p4zWwak95IEd5T20bTBhT_fGBaWO1FCbeDiwIAUmHdC0Zd98El408u1uyK1-KYn_5Xuytbyloz-lLOcwo4iyv2J6NnVe2Cr7Tb59qwEEgFppD6TMmElZeGnfjG1aqyTqX2KVmB3O47Sd0PyXmqrrXdlW-4VduzcfMdbxVN9wKd__SNXrl3w18rPgucK5bQZCm8X-Io2M58yrG1v-WjxUBMSGh62U-3ZLLSVHs_MPXnVnSVxcuIymUmnE_a0otbgbWPnWLr0h4F9GfluR9-7gAzzzNn-zMvylYszmgchUivu1bOyA4txRA-2pf8-9HTEZZFVspR0WcHYyHiffwsjYclNaCRL_Z9o-X7U9kEMEgCRHLtGp6cEwAzOxEQ9yqNQ9zVbBCZihJNtTKCJwv3zrkJCCaZqWGUAXon7z0QOywY7nlh5yj_rvBvRE6CHHc2YXRr0iupBgW3Q_-ghR-nWjs_7bZVFVwMvt8Sq5e92kPfs_7gwTl9pWfg-MdykkPMKRb16ldvY3kiaqgWdlYsgZ_0000]--></g></svg>