<svg xmlns="http://www.w3.org/2000/svg" xmlns:xlink="http://www.w3.org/1999/xlink" contentStyleType="text/css" data-diagram-type="DESCRIPTION" height="982px" preserveAspectRatio="none" style="width:693px;height:982px;background:#FFFFFF;" version="1.1" viewBox="0 0 693 982" width="693px" zoomAndPan="magnify"><defs/><g><!--cluster <<System>> Monopoly Deal Game--><g class="cluster" data-entity="..System.. Monopoly Deal Game" data-source-line="16" data-uid="ent0009" id="cluster_..System.. Monopoly Deal Game"><rect fill="none" height="762" rx="2.5" ry="2.5" style="stroke:#181818;stroke-width:1;" width="468" x="219.5" y="7"/><text fill="#000000" font-family="sans-serif" font-size="14" font-weight="bold" lengthAdjust="spacing" textLength="248.1104" x="329.4448" y="21.9951">&#171;System&#187; Monopoly Deal Game</text></g><!--entity Start--><g class="entity" data-entity="Start" data-source-line="18" data-uid="ent0010" id="entity_Start"><ellipse cx="342.8013" cy="214.0236" fill="#ADD8E6" rx="59.8013" ry="14.5236" style="stroke:#00008B;stroke-width:0.5;"/><text fill="#000000" font-family="sans-serif" font-size="14" lengthAdjust="spacing" textLength="80.3291" x="302.6367" y="218.6721">Start Game</text></g><!--entity Turn--><g class="entity" data-entity="Turn" data-source-line="19" data-uid="ent0011" id="entity_Turn"><ellipse cx="342.9571" cy="580.0236" fill="#ADD8E6" rx="49.4571" ry="14.5236" style="stroke:#00008B;stroke-width:0.5;"/><text fill="#000000" font-family="sans-serif" font-size="14" lengthAdjust="spacing" textLength="65.7002" x="310.107" y="584.6721">Play Turn</text></g><!--entity ViewStatus--><g class="entity" data-entity="ViewStatus" data-source-line="20" data-uid="ent0012" id="entity_ViewStatus"><ellipse cx="342.8542" cy="728.8708" fill="#ADD8E6" rx="107.3542" ry="23.8708" style="stroke:#00008B;stroke-width:0.5;"/><text fill="#000000" font-family="sans-serif" font-size="14" lengthAdjust="spacing" textLength="192.1445" x="246.782" y="733.5193">View Game Status / History</text></g><!--entity Setup--><g class="entity" data-entity="Setup" data-source-line="23" data-uid="ent0013" id="entity_Setup"><ellipse cx="342.9821" cy="58.0964" fill="#ADD8E6" rx="65.9821" ry="15.5964" style="stroke:#00008B;stroke-width:0.5;"/><text fill="#000000" font-family="sans-serif" font-size="14" lengthAdjust="spacing" textLength="96.0586" x="294.9528" y="62.7448">Setup Players</text></g><!--entity Deck--><g class="entity" data-entity="Deck" data-source-line="24" data-uid="ent0014" id="entity_Deck"><ellipse cx="343.0887" cy="128.2177" fill="#ADD8E6" rx="86.5887" ry="19.7177" style="stroke:#00008B;stroke-width:0.5;"/><text fill="#000000" font-family="sans-serif" font-size="14" lengthAdjust="spacing" textLength="145.9746" x="270.1014" y="132.8662">Prepare Deck &amp; Deal</text></g><!--entity Draw--><g class="entity" data-entity="Draw" data-source-line="27" data-uid="ent0015" id="entity_Draw"><ellipse cx="342.9925" cy="278.0236" fill="#ADD8E6" rx="60.4925" ry="14.5236" style="stroke:#00008B;stroke-width:0.5;"/><text fill="#000000" font-family="sans-serif" font-size="14" lengthAdjust="spacing" textLength="81.3066" x="302.3392" y="282.6721">Draw Cards</text></g><!--entity PlayCard--><g class="entity" data-entity="PlayCard" data-source-line="28" data-uid="ent0016" id="entity_PlayCard"><ellipse cx="343.1241" cy="342.0236" fill="#ADD8E6" rx="50.1241" ry="14.5236" style="stroke:#00008B;stroke-width:0.5;"/><text fill="#000000" font-family="sans-serif" font-size="14" lengthAdjust="spacing" textLength="66.6436" x="309.8023" y="346.6721">Play Card</text></g><!--entity EndTurn--><g class="entity" data-entity="EndTurn" data-source-line="29" data-uid="ent0017" id="entity_EndTurn"><ellipse cx="343.1251" cy="497.0236" fill="#ADD8E6" rx="47.6251" ry="14.5236" style="stroke:#00008B;stroke-width:0.5;"/><text fill="#000000" font-family="sans-serif" font-size="14" lengthAdjust="spacing" textLength="63.1094" x="311.5704" y="501.6721">End Turn</text></g><!--entity Discard--><g class="entity" data-entity="Discard" data-source-line="32" data-uid="ent0018" id="entity_Discard"><ellipse cx="342.8973" cy="650.0795" fill="#ADD8E6" rx="88.3973" ry="20.0795" style="stroke:#00008B;stroke-width:0.5;"/><text fill="#000000" font-family="sans-serif" font-size="14" lengthAdjust="spacing" textLength="150.1035" x="267.8455" y="654.7279">Discard Excess Cards</text></g><!--entity CheckWin--><g class="entity" data-entity="CheckWin" data-source-line="33" data-uid="ent0019" id="entity_CheckWin"><ellipse cx="342.8292" cy="411.1658" fill="#ADD8E6" rx="86.3292" ry="19.6658" style="stroke:#00008B;stroke-width:0.5;"/><text fill="#000000" font-family="sans-serif" font-size="14" lengthAdjust="spacing" textLength="145.3799" x="270.1392" y="415.8143">Check Win Condition</text></g><!--entity PlayProp--><g class="entity" data-entity="PlayProp" data-source-line="36" data-uid="ent0020" id="entity_PlayProp"><ellipse cx="591.5897" cy="412.9179" fill="#ADD8E6" rx="80.0897" ry="18.4179" style="stroke:#00008B;stroke-width:0.5;"/><text fill="#000000" font-family="sans-serif" font-size="14" lengthAdjust="spacing" textLength="130.8877" x="526.1459" y="417.5664">Play Property Card</text></g><!--entity PlayMoney--><g class="entity" data-entity="PlayMoney" data-source-line="37" data-uid="ent0021" id="entity_PlayMoney"><ellipse cx="591.4987" cy="341.7997" fill="#ADD8E6" rx="74.4987" ry="17.2997" style="stroke:#00008B;stroke-width:0.5;"/><text fill="#000000" font-family="sans-serif" font-size="14" lengthAdjust="spacing" textLength="117.5098" x="532.7438" y="346.4482">Play Money Card</text></g><!--entity PlayAct--><g class="entity" data-entity="PlayAct" data-source-line="38" data-uid="ent0022" id="entity_PlayAct"><ellipse cx="591.5468" cy="272.1094" fill="#ADD8E6" rx="73.5468" ry="17.1094" style="stroke:#00008B;stroke-width:0.5;"/><text fill="#000000" font-family="sans-serif" font-size="14" lengthAdjust="spacing" textLength="115.1855" x="533.954" y="276.7578">Play Action Card</text></g><!--entity Player--><g class="entity" data-entity="Player" data-source-line="9" data-uid="ent0002" id="entity_Player"><ellipse cx="33" cy="707" fill="#F1F1F1" rx="16" ry="16" style="stroke:#181818;stroke-width:0.5;"/><path d="M33,727 C37,727 40,727 44,723 C52,723 60,731 60,739 L60,743 C60,747 56,751 52,751 L14,751 C10,751 6,747 6,743 L6,739 C6,731 14,723 22,723 C26,727 29,727 33,727" fill="#F1F1F1" style="stroke:#181818;stroke-width:0.5;"/><text fill="#000000" font-family="sans-serif" font-size="14" lengthAdjust="spacing" textLength="43.5654" x="11.2173" y="764.4951">Player</text></g><!--entity Human--><g class="entity" data-entity="Human" data-source-line="10" data-uid="ent0003" id="entity_Human"><ellipse cx="342.7529" cy="805" fill="#F1F1F1" rx="16" ry="16" style="stroke:#181818;stroke-width:0.5;"/><path d="M342.7529,825 C346.7529,825 349.7529,825 353.7529,821 C361.7529,821 369.7529,829 369.7529,837 L369.7529,841 C369.7529,845 365.7529,849 361.7529,849 L323.7529,849 C319.7529,849 315.7529,845 315.7529,841 L315.7529,837 C315.7529,829 323.7529,821 331.7529,821 C335.7529,825 338.7529,825 342.7529,825" fill="#F1F1F1" style="stroke:#181818;stroke-width:0.5;"/><text fill="#000000" font-family="sans-serif" font-size="14" lengthAdjust="spacing" textLength="98.5059" x="293.5" y="862.4951">Human Player</text></g><!--entity AI--><g class="entity" data-entity="AI" data-source-line="11" data-uid="ent0004" id="entity_AI"><ellipse cx="342.8608" cy="917" fill="#F1F1F1" rx="16" ry="16" style="stroke:#181818;stroke-width:0.5;"/><path d="M342.8608,937 C346.8608,937 349.8608,937 353.8608,933 C361.8608,933 369.8608,941 369.8608,949 L369.8608,953 C369.8608,957 365.8608,961 361.8608,961 L323.8608,961 C319.8608,961 315.8608,957 315.8608,953 L315.8608,949 C315.8608,941 323.8608,933 331.8608,933 C335.8608,937 338.8608,937 342.8608,937" fill="#F1F1F1" style="stroke:#181818;stroke-width:0.5;"/><text fill="#000000" font-family="sans-serif" font-size="14" lengthAdjust="spacing" textLength="61.7217" x="312" y="974.4951">AI Player</text></g><!--reverse link Player to Human--><g class="link" data-entity-1="Player" data-entity-2="Human" data-source-line="13" data-uid="lnk6" id="link_Player_Human"><path d="M77.6828,742.8971 C129.4828,759.3771 227.61,790.6 293.44,811.55" fill="none" id="Player-backto-Human" style="stroke:#181818;stroke-width:1;"/><polygon fill="none" points="60.53,737.44,75.8638,748.6147,79.5019,737.1795,60.53,737.44" style="stroke:#181818;stroke-width:1;"/></g><!--reverse link Player to AI--><g class="link" data-entity-1="Player" data-entity-2="AI" data-source-line="14" data-uid="lnk8" id="link_Player_AI"><path d="M72.9736,772.3659 C82.1136,782.1859 80.34,779.76 90.5,789 C140.88,834.82 152.84,848.4 211.5,883 C244.2,902.29 284.78,918.64 311.93,928.6" fill="none" id="Player-backto-AI" style="stroke:#181818;stroke-width:1;"/><polygon fill="none" points="60.71,759.19,68.5816,776.4538,77.3655,768.2781,60.71,759.19" style="stroke:#181818;stroke-width:1;"/></g><!--link Player to Start--><g class="link" data-entity-1="Player" data-entity-2="Start" data-source-line="42" data-uid="lnk23" id="link_Player_Start"><path d="M34.89,690.4 C39.37,596.21 65.28,354.41 211.5,246 C232.68,230.3 254.663,223.2246 279.233,219.0946" fill="none" id="Player-to-Start" style="stroke:#181818;stroke-width:1;"/><polygon fill="#181818" points="285.15,218.1,275.6115,215.6472,280.2192,218.9288,276.9376,223.5366,285.15,218.1" style="stroke:#181818;stroke-width:1;"/></g><!--link Player to Turn--><g class="link" data-entity-1="Player" data-entity-2="Turn" data-source-line="43" data-uid="lnk24" id="link_Player_Turn"><path d="M37.31,690.21 C43.48,628.39 59.07,511.94 90.5,487 C129.84,455.78 164.81,454.98 203.5,487 C218.14,499.11 199.36,514.38 211.5,529 C232.87,554.73 263.0702,566.2405 291.8802,572.5805" fill="none" id="Player-to-Turn" style="stroke:#181818;stroke-width:1;"/><polygon fill="#181818" points="297.74,573.87,289.81,568.0292,292.8568,572.7954,288.0906,575.8422,297.74,573.87" style="stroke:#181818;stroke-width:1;"/></g><!--link Player to ViewStatus--><g class="link" data-entity-1="Player" data-entity-2="ViewStatus" data-source-line="44" data-uid="lnk25" id="link_Player_ViewStatus"><path d="M60.53,729 C99.12,729 166.96,729 229.33,729" fill="none" id="Player-to-ViewStatus" style="stroke:#181818;stroke-width:1;"/><polygon fill="#181818" points="235.33,729,226.33,725,230.33,729,226.33,733,235.33,729" style="stroke:#181818;stroke-width:1;"/></g><!--link Start to Setup--><g class="link" data-entity-1="Start" data-entity-2="Setup" data-source-line="47" data-uid="lnk26" id="link_Start_Setup"><path d="M284.37,210.49 C239.57,204.37 180.56,188.11 150.5,145.5 C114.36,94.28 206.1186,73.2224 275.1986,64.3724" fill="none" id="Start-to-Setup" style="stroke:#181818;stroke-width:1;stroke-dasharray:7,7;"/><polygon fill="#181818" points="281.15,63.61,271.7147,60.7861,276.1905,64.2454,272.7313,68.7212,281.15,63.61" style="stroke:#181818;stroke-width:1;"/><text fill="#000000" font-family="sans-serif" font-size="13" lengthAdjust="spacing" textLength="63.0068" x="115.5" y="141.5669">&#171;include&#187;</text></g><!--link Start to Deck--><g class="link" data-entity-1="Start" data-entity-2="Deck" data-source-line="48" data-uid="lnk27" id="link_Start_Deck"><path d="M343,199.41 C343,185.13 343,169.28 343,153.51" fill="none" id="Start-to-Deck" style="stroke:#181818;stroke-width:1;stroke-dasharray:7,7;"/><polygon fill="#181818" points="343,147.51,339,156.51,343,152.51,347,156.51,343,147.51" style="stroke:#181818;stroke-width:1;"/><text fill="#000000" font-family="sans-serif" font-size="13" lengthAdjust="spacing" textLength="63.0068" x="300" y="178.0669">&#171;include&#187;</text></g><!--link Turn to Draw--><g class="link" data-entity-1="Turn" data-entity-2="Draw" data-source-line="51" data-uid="lnk28" id="link_Turn_Draw"><path d="M294.9,576.26 C249.17,569.86 182.71,552.5 150.5,505.5 C140.88,491.46 125.69,388.37 211.5,310 C230.84,292.33 252.3491,284.898 277.1691,281.098" fill="none" id="Turn-to-Draw" style="stroke:#181818;stroke-width:1;stroke-dasharray:7,7;"/><polygon fill="#181818" points="283.1,280.19,273.5983,277.5981,278.1576,280.9467,274.809,285.506,283.1,280.19" style="stroke:#181818;stroke-width:1;"/><text fill="#000000" font-family="sans-serif" font-size="13" lengthAdjust="spacing" textLength="63.0068" x="115.5" y="501.5669">&#171;include&#187;</text></g><!--link Turn to PlayCard--><g class="link" data-entity-1="Turn" data-entity-2="PlayCard" data-source-line="52" data-uid="lnk29" id="link_Turn_PlayCard"><path d="M307.09,589.99 C263.12,599.78 189.7,607.76 150.5,565.5 C139.2,553.31 109.53,466.48 211.5,374 C233.52,354.03 259.9173,346.6584 287.0373,343.6184" fill="none" id="Turn-to-PlayCard" style="stroke:#181818;stroke-width:1;stroke-dasharray:7,7;"/><polygon fill="#181818" points="293,342.95,283.6104,339.9775,288.0311,343.507,284.5016,347.9277,293,342.95" style="stroke:#181818;stroke-width:1;"/><text fill="#000000" font-family="sans-serif" font-size="13" lengthAdjust="spacing" textLength="63.0068" x="115.5" y="561.5669">&#171;include&#187;</text></g><!--link Turn to EndTurn--><g class="link" data-entity-1="Turn" data-entity-2="EndTurn" data-source-line="53" data-uid="lnk30" id="link_Turn_EndTurn"><path d="M343,565.16 C343,550.05 343,532.77 343,517.71" fill="none" id="Turn-to-EndTurn" style="stroke:#181818;stroke-width:1;stroke-dasharray:7,7;"/><polygon fill="#181818" points="343,511.71,339,520.71,343,516.71,347,520.71,343,511.71" style="stroke:#181818;stroke-width:1;"/><text fill="#000000" font-family="sans-serif" font-size="13" lengthAdjust="spacing" textLength="63.0068" x="300" y="543.0669">&#171;include&#187;</text></g><!--reverse link PlayCard to PlayProp--><g class="link" data-entity-1="PlayCard" data-entity-2="PlayProp" data-source-line="56" data-uid="lnk32" id="link_PlayCard_PlayProp"><path d="M396.357,357.0812 C438.617,369.2512 492.65,384.82 540.64,398.64" fill="none" id="PlayCard-backto-PlayProp" style="stroke:#181818;stroke-width:1;"/><polygon fill="none" points="379.06,352.1,394.6966,362.8469,398.0174,351.3155,379.06,352.1" style="stroke:#181818;stroke-width:1;"/></g><!--reverse link PlayCard to PlayMoney--><g class="link" data-entity-1="PlayCard" data-entity-2="PlayMoney" data-source-line="57" data-uid="lnk34" id="link_PlayCard_PlayMoney"><path d="M411.29,342 C446.7,342 477.02,342 516.97,342" fill="none" id="PlayCard-backto-PlayMoney" style="stroke:#181818;stroke-width:1;"/><polygon fill="none" points="393.29,342,411.29,348,411.29,336,393.29,342" style="stroke:#181818;stroke-width:1;"/></g><!--reverse link PlayCard to PlayAct--><g class="link" data-entity-1="PlayCard" data-entity-2="PlayAct" data-source-line="58" data-uid="lnk36" id="link_PlayCard_PlayAct"><path d="M396.6358,327.0545 C440.0358,314.7345 496.46,298.7 544.32,285.11" fill="none" id="PlayCard-backto-PlayAct" style="stroke:#181818;stroke-width:1;"/><polygon fill="none" points="379.32,331.97,398.2743,332.8265,394.9973,321.2826,379.32,331.97" style="stroke:#181818;stroke-width:1;"/></g><!--link EndTurn to CheckWin--><g class="link" data-entity-1="EndTurn" data-entity-2="CheckWin" data-source-line="61" data-uid="lnk37" id="link_EndTurn_CheckWin"><path d="M343,482.41 C343,468.13 343,452.28 343,436.51" fill="none" id="EndTurn-to-CheckWin" style="stroke:#181818;stroke-width:1;stroke-dasharray:7,7;"/><polygon fill="#181818" points="343,430.51,339,439.51,343,435.51,347,439.51,343,430.51" style="stroke:#181818;stroke-width:1;"/><text fill="#000000" font-family="sans-serif" font-size="13" lengthAdjust="spacing" textLength="63.0068" x="300" y="461.0669">&#171;include&#187;</text></g><!--link Discard to EndTurn--><g class="link" data-entity-1="Discard" data-entity-2="EndTurn" data-source-line="62" data-uid="lnk38" id="link_Discard_EndTurn"><path d="M281.18,635.67 C199.45,614.05 71.82,569.33 126.5,511 C172.74,461.67 254.7608,473.178 303.1208,485.328" fill="none" id="Discard-to-EndTurn" style="stroke:#181818;stroke-width:1;stroke-dasharray:7,7;"/><polygon fill="#181818" points="308.94,486.79,301.1859,480.7176,304.0907,485.5717,299.2366,488.4764,308.94,486.79" style="stroke:#181818;stroke-width:1;"/><text fill="#000000" font-family="sans-serif" font-size="13" lengthAdjust="spacing" textLength="61.1851" x="116.8716" y="524.0669">&#171;extend&#187;</text><text fill="#000000" font-family="sans-serif" font-size="13" lengthAdjust="spacing" textLength="111.9282" x="91.5" y="539.1997">(if hand size &gt; 7)</text></g><!--SRC=[TLH1QnD15BxlhtZaO9j3z2X8M6YJqWGg55BqucNOVKc6R6R2p2pfLZq8zbOGKJmeAbxKUo4KAlXdaiQRVy5vCzbcagstlE_xvhttpNoR3Fi6Z0J51qC3ALUO62v5f4TSJ9XYOz13bief5mFeiqnZmB34IDKpHOR0fgZbE2HpZGdJ2CyZW7sMZ0PAvY9joKmgEA9X-rcEn4cLel9ucwcHWrz6aMiEjUEC5QXgm3JudoNHoSTCG40xe6JtkY6rruqYhs_aayQBk6nbLPj0HFQP65X7jMQpLsY3upY6nrB8YSmAQ2FBu92DiMPzsULBaxMUOSgi63lGbI5F_U4aLyBHz2Dadt2SkiDqqEGQ7a27QskaS7AYFK4pTw279f_0yT2UtTZ1myw9zciGih66GliwQ7qa8xZdx3WXrRuthLPjtLPi2YscKj-Noeexec_VYOfGSI3IjNrRh6x0ZIovEyPodTX6S72QeDRX0fu8jQqXUNhA1RIaI3c5s4aTRc5lZrh0IJ513Rk7A52nZ9yn4jShXewLdA0oMyu8hKXjG71Bvw2ASCzzNPjAYr7WTuYqsUqAOzToEXtvruH68rvbAW3S7GPr69CTM2VITaooF4KTUUn-l4hG8sWskUVYU4swS6nojjzjWjVjN4K7A1sR1qggpC9_w5KIgjFS6JfC_piTRYz49SC2TcykFoqkFYpEBvUNrtz_NTnyURKudysltislFjQZydd2Zze5yVOzxcJijLVmA8ZbaHpmn8x-_6r-FVlpu_lYpTlb-v-0fmP5QfTO_3vVlfuvz2iHAoFrg7HdZPOft79Q1dphAdphE7ucTdaVXinkelaPGWmFw_y0]--></g></svg>