<svg xmlns="http://www.w3.org/2000/svg" xmlns:xlink="http://www.w3.org/1999/xlink" contentStyleType="text/css" data-diagram-type="DESCRIPTION" height="457px" preserveAspectRatio="none" style="width:839px;height:457px;background:#FFFFFF;" version="1.1" viewBox="0 0 839 457" width="839px" zoomAndPan="magnify"><defs/><g><!--cluster <<System>> Action Card Sub-system--><g class="cluster" data-entity="..System.. Action Card Sub-system" data-source-line="11" data-uid="ent0003" id="cluster_..System.. Action Card Sub-system"><rect fill="none" height="352" rx="2.5" ry="2.5" style="stroke:#181818;stroke-width:1;" width="826" x="7" y="99"/><text fill="#000000" font-family="sans-serif" font-size="14" font-weight="bold" lengthAdjust="spacing" textLength="270.334" x="284.833" y="113.9951">&#171;System&#187; Action Card Sub-system</text></g><!--entity Action--><g class="entity" data-entity="Action" data-source-line="13" data-uid="ent0004" id="entity_Action"><ellipse cx="406.5468" cy="244.1094" fill="#FFFFE0" rx="73.5468" ry="17.1094" style="stroke:#FF8C00;stroke-width:0.5;"/><text fill="#000000" font-family="sans-serif" font-size="14" lengthAdjust="spacing" textLength="115.1855" x="348.954" y="248.7578">Play Action Card</text></g><!--entity Rent--><g class="entity" data-entity="Rent" data-source-line="16" data-uid="ent0005" id="entity_Rent"><ellipse cx="710.1548" cy="409.8106" fill="#FFFFE0" rx="97.1548" ry="24.3106" style="stroke:#FF8C00;stroke-width:0.5;"/><text fill="#000000" font-family="sans-serif" font-size="14" lengthAdjust="spacing" textLength="87.6367" x="666.3364" y="403.7453">Charge Rent</text><text fill="#000000" font-family="sans-serif" font-size="14" lengthAdjust="spacing" textLength="144.0059" x="638.1518" y="420.0422">(Rent / Double Rent)</text></g><!--entity Draw--><g class="entity" data-entity="Draw" data-source-line="17" data-uid="ent0006" id="entity_Draw"><ellipse cx="709.9707" cy="326.1084" fill="#FFFFE0" rx="82.4707" ry="24.1084" style="stroke:#FF8C00;stroke-width:0.5;"/><text fill="#000000" font-family="sans-serif" font-size="14" lengthAdjust="spacing" textLength="122.7119" x="648.6147" y="325.4898">Draw Extra Cards</text><text fill="#000000" font-family="sans-serif" font-size="14" lengthAdjust="spacing" textLength="66.3975" x="676.772" y="341.7866">(Pass Go)</text></g><!--entity CollectMoney--><g class="entity" data-entity="CollectMoney" data-source-line="18" data-uid="ent0007" id="entity_CollectMoney"><ellipse cx="709.9479" cy="242.8368" fill="#FFFFE0" rx="106.9479" ry="23.8368" style="stroke:#FF8C00;stroke-width:0.5;"/><text fill="#000000" font-family="sans-serif" font-size="14" lengthAdjust="spacing" textLength="162.5996" x="628.6481" y="242.6497">Collect Birthday Money</text><text fill="#000000" font-family="sans-serif" font-size="14" lengthAdjust="spacing" textLength="70.2871" x="674.8043" y="258.9466">(Birthday)</text></g><!--entity Debt--><g class="entity" data-entity="Debt" data-source-line="19" data-uid="ent0008" id="entity_Debt"><ellipse cx="710.1428" cy="158.7813" fill="#FFFFE0" rx="103.6428" ry="24.7813" style="stroke:#FF8C00;stroke-width:0.5;"/><text fill="#000000" font-family="sans-serif" font-size="14" lengthAdjust="spacing" textLength="150.6025" x="634.8415" y="157.127">Force Debt Collection</text><text fill="#000000" font-family="sans-serif" font-size="14" lengthAdjust="spacing" textLength="111.3848" x="654.4504" y="173.4238">(Debt Collector)</text></g><!--entity SlyDeal--><g class="entity" data-entity="SlyDeal" data-source-line="21" data-uid="ent0009" id="entity_SlyDeal"><ellipse cx="116.4888" cy="159.0725" fill="#FFFFE0" rx="68.9888" ry="24.5725" style="stroke:#FF8C00;stroke-width:0.5;"/><text fill="#000000" font-family="sans-serif" font-size="14" lengthAdjust="spacing" textLength="99.7021" x="66.6377" y="157.7349">Steal Property</text><text fill="#000000" font-family="sans-serif" font-size="14" lengthAdjust="spacing" textLength="68.2979" x="82.3399" y="174.0317">(Sly Deal)</text></g><!--entity ForcedDeal--><g class="entity" data-entity="ForcedDeal" data-source-line="22" data-uid="ent0010" id="entity_ForcedDeal"><ellipse cx="116.4344" cy="244.1564" fill="#FFFFE0" rx="73.9344" ry="25.6564" style="stroke:#FF8C00;stroke-width:0.5;"/><text fill="#000000" font-family="sans-serif" font-size="14" lengthAdjust="spacing" textLength="102.0469" x="65.411" y="241.214">Swap Property</text><text fill="#000000" font-family="sans-serif" font-size="14" lengthAdjust="spacing" textLength="94.8076" x="69.0306" y="257.5109">(Forced Deal)</text></g><!--entity Breaker--><g class="entity" data-entity="Breaker" data-source-line="23" data-uid="ent0011" id="entity_Breaker"><ellipse cx="116.4128" cy="329.8583" fill="#FFFFE0" rx="93.4128" ry="24.8583" style="stroke:#FF8C00;stroke-width:0.5;"/><text fill="#000000" font-family="sans-serif" font-size="14" lengthAdjust="spacing" textLength="134.8184" x="49.0037" y="328.0882">Steal Complete Set</text><text fill="#000000" font-family="sans-serif" font-size="14" lengthAdjust="spacing" textLength="102.2656" x="65.28" y="344.3851">(Deal Breaker)</text></g><!--entity Build--><g class="entity" data-entity="Build" data-source-line="24" data-uid="ent0012" id="entity_Build"><ellipse cx="116.4873" cy="409.1975" fill="#FFFFE0" rx="81.4873" ry="18.6975" style="stroke:#FF8C00;stroke-width:0.5;"/><text fill="#000000" font-family="sans-serif" font-size="14" lengthAdjust="spacing" textLength="134.1689" x="49.4028" y="413.8459">Build House / Hotel</text></g><!--entity Player--><g class="entity" data-entity="Player" data-source-line="9" data-uid="ent0002" id="entity_Player"><ellipse cx="116.5" cy="22" fill="#F1F1F1" rx="16" ry="16" style="stroke:#181818;stroke-width:0.5;"/><path d="M116.5,42 C120.5,42 123.5,42 127.5,38 C135.5,38 143.5,46 143.5,54 L143.5,58 C143.5,62 139.5,66 135.5,66 L97.5,66 C93.5,66 89.5,62 89.5,58 L89.5,54 C89.5,46 97.5,38 105.5,38 C109.5,42 112.5,42 116.5,42" fill="#F1F1F1" style="stroke:#181818;stroke-width:0.5;"/><text fill="#000000" font-family="sans-serif" font-size="14" lengthAdjust="spacing" textLength="43.5654" x="94.7173" y="79.4951">Player</text></g><!--link Player to Action--><g class="link" data-entity-1="Player" data-entity-2="Action" data-source-line="27" data-uid="lnk13" id="link_Player_Action"><path d="M144.27,62.37 C180.38,87.17 246.64,132.76 303,172 C330.31,191.01 356.6871,209.5615 377.4271,224.1915" fill="none" id="Player-to-Action" style="stroke:#181818;stroke-width:1;"/><polygon fill="#181818" points="382.33,227.65,377.2813,219.1936,378.2442,224.7679,372.6699,225.7308,382.33,227.65" style="stroke:#181818;stroke-width:1;"/></g><!--reverse link Action to Rent--><g class="link" data-entity-1="Action" data-entity-2="Rent" data-source-line="30" data-uid="lnk15" id="link_Action_Rent"><path d="M434.644,263.7052 C470.014,288.9452 536.93,334.62 603,367 C619.58,375.13 638.11,383.03 654.97,389.79" fill="none" id="Action-backto-Rent" style="stroke:#181818;stroke-width:1;stroke-dasharray:7,7;"/><polygon fill="#181818" points="429.76,260.22,434.7625,268.7038,433.83,263.1243,439.4095,262.1918,429.76,260.22" style="stroke:#181818;stroke-width:1;"/><text fill="#000000" font-family="sans-serif" font-size="13" lengthAdjust="spacing" textLength="61.1851" x="511" y="314.0669">&#171;extend&#187;</text></g><!--reverse link Action to Draw--><g class="link" data-entity-1="Action" data-entity-2="Draw" data-source-line="31" data-uid="lnk17" id="link_Action_Draw"><path d="M460.7296,258.4751 C513.2196,272.7551 592.11,294.21 649.12,309.71" fill="none" id="Action-backto-Draw" style="stroke:#181818;stroke-width:1;stroke-dasharray:7,7;"/><polygon fill="#181818" points="454.94,256.9,462.5743,263.1223,459.7646,258.2126,464.6744,255.4029,454.94,256.9" style="stroke:#181818;stroke-width:1;"/><text fill="#000000" font-family="sans-serif" font-size="13" lengthAdjust="spacing" textLength="61.1851" x="511" y="269.0669">&#171;extend&#187;</text></g><!--reverse link Action to CollectMoney--><g class="link" data-entity-1="Action" data-entity-2="CollectMoney" data-source-line="32" data-uid="lnk19" id="link_Action_CollectMoney"><path d="M486.1,243.7404 C522.87,243.6204 562.2,243.49 602.8,243.35" fill="none" id="Action-backto-CollectMoney" style="stroke:#181818;stroke-width:1;stroke-dasharray:7,7;"/><polygon fill="#181818" points="480.1,243.76,489.113,247.7306,485.1,243.7437,489.0869,239.7306,480.1,243.76" style="stroke:#181818;stroke-width:1;"/><text fill="#000000" font-family="sans-serif" font-size="13" lengthAdjust="spacing" textLength="61.1851" x="511" y="240.0669">&#171;extend&#187;</text></g><!--reverse link Action to Debt--><g class="link" data-entity-1="Action" data-entity-2="Debt" data-source-line="33" data-uid="lnk21" id="link_Action_Debt"><path d="M459.7246,229.2809 C510.0246,215.0909 584.93,193.98 642.06,177.87" fill="none" id="Action-backto-Debt" style="stroke:#181818;stroke-width:1;stroke-dasharray:7,7;"/><polygon fill="#181818" points="453.95,230.91,463.698,232.3162,458.7622,229.5524,461.5259,224.6167,453.95,230.91" style="stroke:#181818;stroke-width:1;"/><text fill="#000000" font-family="sans-serif" font-size="13" lengthAdjust="spacing" textLength="61.1851" x="511" y="195.0669">&#171;extend&#187;</text></g><!--link SlyDeal to Action--><g class="link" data-entity-1="SlyDeal" data-entity-2="Action" data-source-line="35" data-uid="lnk22" id="link_SlyDeal_Action"><path d="M169.99,174.49 C224.5,190.58 303.1353,213.7919 354.7153,229.0119" fill="none" id="SlyDeal-to-Action" style="stroke:#181818;stroke-width:1;stroke-dasharray:7,7;"/><polygon fill="#181818" points="360.47,230.71,352.97,224.3264,355.6744,229.2949,350.7059,231.9994,360.47,230.71" style="stroke:#181818;stroke-width:1;"/><text fill="#000000" font-family="sans-serif" font-size="13" lengthAdjust="spacing" textLength="61.1851" x="241" y="193.0669">&#171;extend&#187;</text></g><!--link ForcedDeal to Action--><g class="link" data-entity-1="ForcedDeal" data-entity-2="Action" data-source-line="36" data-uid="lnk23" id="link_ForcedDeal_Action"><path d="M190.55,244 C234.04,244 283.05,244 326.53,244" fill="none" id="ForcedDeal-to-Action" style="stroke:#181818;stroke-width:1;stroke-dasharray:7,7;"/><polygon fill="#181818" points="332.53,244,323.53,240,327.53,244,323.53,248,332.53,244" style="stroke:#181818;stroke-width:1;"/><text fill="#000000" font-family="sans-serif" font-size="13" lengthAdjust="spacing" textLength="61.1851" x="241" y="240.0669">&#171;extend&#187;</text></g><!--link Breaker to Action--><g class="link" data-entity-1="Breaker" data-entity-2="Action" data-source-line="37" data-uid="lnk24" id="link_Breaker_Action"><path d="M179.64,311.45 C234.21,295.15 306.5108,273.5565 355.1108,259.0465" fill="none" id="Breaker-to-Action" style="stroke:#181818;stroke-width:1;stroke-dasharray:7,7;"/><polygon fill="#181818" points="360.86,257.33,351.0918,256.0719,356.069,258.7604,353.3805,263.7376,360.86,257.33" style="stroke:#181818;stroke-width:1;"/><text fill="#000000" font-family="sans-serif" font-size="13" lengthAdjust="spacing" textLength="61.1851" x="241" y="273.0669">&#171;extend&#187;</text></g><!--link Build to Action--><g class="link" data-entity-1="Build" data-entity-2="Action" data-source-line="38" data-uid="lnk25" id="link_Build_Action"><path d="M160.43,393.33 C176.23,387.17 194.14,379.73 210,372 C277.66,339.04 345.1337,290.2714 379.8037,263.9114" fill="none" id="Build-to-Action" style="stroke:#181818;stroke-width:1;stroke-dasharray:7,7;"/><polygon fill="#181818" points="384.58,260.28,374.9947,262.543,380.5998,263.3062,379.8366,268.9113,384.58,260.28" style="stroke:#181818;stroke-width:1;"/><text fill="#000000" font-family="sans-serif" font-size="13" lengthAdjust="spacing" textLength="61.1851" x="241" y="317.0669">&#171;extend&#187;</text></g><!--SRC=[VLCxZzim3DxrAuWiTpSatOl0G9EqlQ55Wtegq8Mn6KU88XgK39zHzBzN3-TEXoAPB7uFaY9bGqSFda5qT_BGQg76QxRAdRNjKV02xeGjZzfsS4JZg62myIordmm1ZkJuKfA3emOTmHy5iC7ct0aFjjsoOO5liTWlCeR7oBAq99dPePn_2DgEr5-bKW5Ox0rE90j01_ceL6mpg4BbnNfTJyxJfQhWK-eTjYWjrCDXwHAn23s4CjU6KhfIcXBdEEeUeEwfqKVTb287Z-irlNYoRLKzbUcs9vIEu2TP_zi-nWzyW1qF1vF1fvG_dahNJd24pozUCASFrZqw1ryvwoF_hWeR4-uC6ot-r8OBV6TBKt1TWMoRPOaixLzO6e8T7VnL4YuMt2N2CfSEMF2MzjeJ6jWBzoG-LgtD57HeiYD4CNZd6B4l3Qc1jl1au3zRAhJbIs_84zJaKvC1smZXcUOMvw1qRWPjMdZc08JvFxCdawKHZuyfFnrOBglNPJzSDvmMwyB9gRJ0rT2lNf_JHtZRl4fxkqsNyx-N9OxzDgtcWS8g_7dsXkXjW7TbywZkQzBixYZ-0G00]--></g></svg>