<svg xmlns="http://www.w3.org/2000/svg" xmlns:xlink="http://www.w3.org/1999/xlink" id="export-1775553690499" width="3330" style="max-width: 3130px;" viewBox="0 0 3330 2597" role="graphics-document document" aria-roledescription="sequence" height="2597"><g><rect x="2880" y="2311" fill="#eaeaea" stroke="#666" width="150" height="65" name="Player" rx="3" ry="3" class="actor actor-bottom"/><text x="2955" y="2343.5" dominant-baseline="central" alignment-baseline="central" class="actor actor-box" style="text-anchor: middle; font-size: 16px; font-weight: 400;"><tspan x="2955" dy="0">Player</tspan></text></g><g><rect x="2680" y="2311" fill="#eaeaea" stroke="#666" width="150" height="65" name="ActionCard" rx="3" ry="3" class="actor actor-bottom"/><text x="2755" y="2343.5" dominant-baseline="central" alignment-baseline="central" class="actor actor-box" style="text-anchor: middle; font-size: 16px; font-weight: 400;"><tspan x="2755" dy="0">ActionCard</tspan></text></g><g><rect x="2103" y="2311" fill="#eaeaea" stroke="#666" width="150" height="65" name="GameModel" rx="3" ry="3" class="actor actor-bottom"/><text x="2178" y="2343.5" dominant-baseline="central" alignment-baseline="central" class="actor actor-box" style="text-anchor: middle; font-size: 16px; font-weight: 400;"><tspan x="2178" dy="0">GameModel</tspan></text></g><g><rect x="1658" y="2311" fill="#eaeaea" stroke="#666" width="150" height="65" name="TurnState" rx="3" ry="3" class="actor actor-bottom"/><text x="1733" y="2343.5" dominant-baseline="central" alignment-baseline="central" class="actor actor-box" style="text-anchor: middle; font-size: 16px; font-weight: 400;"><tspan x="1733" dy="0">TurnState</tspan></text></g><g><rect x="1046" y="2311" fill="#eaeaea" stroke="#666" width="150" height="65" name="GameFacade" rx="3" ry="3" class="actor actor-bottom"/><text x="1121" y="2343.5" dominant-baseline="central" alignment-baseline="central" class="actor actor-box" style="text-anchor: middle; font-size: 16px; font-weight: 400;"><tspan x="1121" dy="0">GameFacade</tspan></text></g><g><rect x="631" y="2311" fill="#eaeaea" stroke="#666" width="162" height="65" name="PlayCardCommand" rx="3" ry="3" class="actor actor-bottom"/><text x="712" y="2343.5" dominant-baseline="central" alignment-baseline="central" class="actor actor-box" style="text-anchor: middle; font-size: 16px; font-weight: 400;"><tspan x="712" dy="0">PlayCardCommand</tspan></text></g><g><rect x="431" y="2311" fill="#eaeaea" stroke="#666" width="150" height="65" name="GameController" rx="3" ry="3" class="actor actor-bottom"/><text x="506" y="2343.5" dominant-baseline="central" alignment-baseline="central" class="actor actor-box" style="text-anchor: middle; font-size: 16px; font-weight: 400;"><tspan x="506" dy="0">GameController</tspan></text></g><g><rect x="200" y="2311" fill="#eaeaea" stroke="#666" width="181" height="65" name="ActionContextDialogs" rx="3" ry="3" class="actor actor-bottom"/><text x="290.5" y="2343.5" dominant-baseline="central" alignment-baseline="central" class="actor actor-box" style="text-anchor: middle; font-size: 16px; font-weight: 400;"><tspan x="290.5" dy="0">ActionContextDialogs</tspan></text></g><g><rect x="0" y="2311" fill="#eaeaea" stroke="#666" width="150" height="65" name="DealGameFrame" rx="3" ry="3" class="actor actor-bottom"/><text x="75" y="2343.5" dominant-baseline="central" alignment-baseline="central" class="actor actor-box" style="text-anchor: middle; font-size: 16px; font-weight: 400;"><tspan x="75" dy="0">DealGameFrame</tspan></text></g><g><line id="actor296" x1="2955" y1="65" x2="2955" y2="2311" class="actor-line 200" stroke-width="0.5px" stroke="#999" name="Player"/><g id="root-296"><rect x="2880" y="0" fill="#eaeaea" stroke="#666" width="150" height="65" name="Player" rx="3" ry="3" class="actor actor-top"/><text x="2955" y="32.5" dominant-baseline="central" alignment-baseline="central" class="actor actor-box" style="text-anchor: middle; font-size: 16px; font-weight: 400;"><tspan x="2955" dy="0">Player</tspan></text></g></g><g><line id="actor295" x1="2755" y1="65" x2="2755" y2="2311" class="actor-line 200" stroke-width="0.5px" stroke="#999" name="ActionCard"/><g id="root-295"><rect x="2680" y="0" fill="#eaeaea" stroke="#666" width="150" height="65" name="ActionCard" rx="3" ry="3" class="actor actor-top"/><text x="2755" y="32.5" dominant-baseline="central" alignment-baseline="central" class="actor actor-box" style="text-anchor: middle; font-size: 16px; font-weight: 400;"><tspan x="2755" dy="0">ActionCard</tspan></text></g></g><g><line id="actor294" x1="2178" y1="65" x2="2178" y2="2311" class="actor-line 200" stroke-width="0.5px" stroke="#999" name="GameModel"/><g id="root-294"><rect x="2103" y="0" fill="#eaeaea" stroke="#666" width="150" height="65" name="GameModel" rx="3" ry="3" class="actor actor-top"/><text x="2178" y="32.5" dominant-baseline="central" alignment-baseline="central" class="actor actor-box" style="text-anchor: middle; font-size: 16px; font-weight: 400;"><tspan x="2178" dy="0">GameModel</tspan></text></g></g><g><line id="actor293" x1="1733" y1="65" x2="1733" y2="2311" class="actor-line 200" stroke-width="0.5px" stroke="#999" name="TurnState"/><g id="root-293"><rect x="1658" y="0" fill="#eaeaea" stroke="#666" width="150" height="65" name="TurnState" rx="3" ry="3" class="actor actor-top"/><text x="1733" y="32.5" dominant-baseline="central" alignment-baseline="central" class="actor actor-box" style="text-anchor: middle; font-size: 16px; font-weight: 400;"><tspan x="1733" dy="0">TurnState</tspan></text></g></g><g><line id="actor292" x1="1121" y1="65" x2="1121" y2="2311" class="actor-line 200" stroke-width="0.5px" stroke="#999" name="GameFacade"/><g id="root-292"><rect x="1046" y="0" fill="#eaeaea" stroke="#666" width="150" height="65" name="GameFacade" rx="3" ry="3" class="actor actor-top"/><text x="1121" y="32.5" dominant-baseline="central" alignment-baseline="central" class="actor actor-box" style="text-anchor: middle; font-size: 16px; font-weight: 400;"><tspan x="1121" dy="0">GameFacade</tspan></text></g></g><g><line id="actor291" x1="712" y1="65" x2="712" y2="2311" class="actor-line 200" stroke-width="0.5px" stroke="#999" name="PlayCardCommand"/><g id="root-291"><rect x="631" y="0" fill="#eaeaea" stroke="#666" width="162" height="65" name="PlayCardCommand" rx="3" ry="3" class="actor actor-top"/><text x="712" y="32.5" dominant-baseline="central" alignment-baseline="central" class="actor actor-box" style="text-anchor: middle; font-size: 16px; font-weight: 400;"><tspan x="712" dy="0">PlayCardCommand</tspan></text></g></g><g><line id="actor290" x1="506" y1="65" x2="506" y2="2311" class="actor-line 200" stroke-width="0.5px" stroke="#999" name="GameController"/><g id="root-290"><rect x="431" y="0" fill="#eaeaea" stroke="#666" width="150" height="65" name="GameController" rx="3" ry="3" class="actor actor-top"/><text x="506" y="32.5" dominant-baseline="central" alignment-baseline="central" class="actor actor-box" style="text-anchor: middle; font-size: 16px; font-weight: 400;"><tspan x="506" dy="0">GameController</tspan></text></g></g><g><line id="actor289" x1="290.5" y1="65" x2="290.5" y2="2311" class="actor-line 200" stroke-width="0.5px" stroke="#999" name="ActionContextDialogs"/><g id="root-289"><rect x="200" y="0" fill="#eaeaea" stroke="#666" width="181" height="65" name="ActionContextDialogs" rx="3" ry="3" class="actor actor-top"/><text x="290.5" y="32.5" dominant-baseline="central" alignment-baseline="central" class="actor actor-box" style="text-anchor: middle; font-size: 16px; font-weight: 400;"><tspan x="290.5" dy="0">ActionContextDialogs</tspan></text></g></g><g><line id="actor288" x1="75" y1="65" x2="75" y2="2311" class="actor-line 200" stroke-width="0.5px" stroke="#999" name="DealGameFrame"/><g id="root-288"><rect x="0" y="0" fill="#eaeaea" stroke="#666" width="150" height="65" name="DealGameFrame" rx="3" ry="3" class="actor actor-top"/><text x="75" y="32.5" dominant-baseline="central" alignment-baseline="central" class="actor actor-box" style="text-anchor: middle; font-size: 16px; font-weight: 400;"><tspan x="75" dy="0">DealGameFrame</tspan></text></g></g><style>#export-1775553690499{font-family:sans-serif;font-size:16px;fill:#334155;}@keyframes edge-animation-frame{from{stroke-dashoffset:0;}}@keyframes dash{to{stroke-dashoffset:0;}}#export-1775553690499 .edge-animation-slow{stroke-dasharray:9,5!important;stroke-dashoffset:900;animation:dash 50s linear infinite;stroke-linecap:round;}#export-1775553690499 .edge-animation-fast{stroke-dasharray:9,5!important;stroke-dashoffset:900;animation:dash 20s linear infinite;stroke-linecap:round;}#export-1775553690499 .error-icon{fill:#f1f5f9;}#export-1775553690499 .error-text{fill:#0e0a06;stroke:#0e0a06;}#export-1775553690499 .edge-thickness-normal{stroke-width:1px;}#export-1775553690499 .edge-thickness-thick{stroke-width:3.5px;}#export-1775553690499 .edge-pattern-solid{stroke-dasharray:0;}#export-1775553690499 .edge-thickness-invisible{stroke-width:0;fill:none;}#export-1775553690499 .edge-pattern-dashed{stroke-dasharray:3;}#export-1775553690499 .edge-pattern-dotted{stroke-dasharray:2;}#export-1775553690499 .marker{fill:#334155;stroke:#334155;}#export-1775553690499 .marker.cross{stroke:#334155;}#export-1775553690499 svg{font-family:sans-serif;font-size:16px;}#export-1775553690499 p{margin:0;}#export-1775553690499 .actor{stroke:#1e3a8a;fill:#1e40af;}#export-1775553690499 text.actor&gt;tspan{fill:#ffffff;stroke:none;}#export-1775553690499 .actor-line{stroke:#cbd5e1;}#export-1775553690499 .innerArc{stroke-width:1.5;stroke-dasharray:none;}#export-1775553690499 .messageLine0{stroke-width:1.5;stroke-dasharray:none;stroke:#334155;}#export-1775553690499 .messageLine1{stroke-width:1.5;stroke-dasharray:2,2;stroke:#334155;}#export-1775553690499 #arrowhead path{fill:#334155;stroke:#334155;}#export-1775553690499 .sequenceNumber{fill:#ccbeaa;}#export-1775553690499 #sequencenumber{fill:#334155;}#export-1775553690499 #crosshead path{fill:#334155;stroke:#334155;}#export-1775553690499 .messageText{fill:#0f172a;stroke:none;}#export-1775553690499 .labelBox{stroke:#94a3b8;fill:#f1f5f9;}#export-1775553690499 .labelText,#export-1775553690499 .labelText&gt;tspan{fill:#0f172a;stroke:none;}#export-1775553690499 .loopText,#export-1775553690499 .loopText&gt;tspan{fill:#0f172a;stroke:none;}#export-1775553690499 .loopLine{stroke-width:2px;stroke-dasharray:2,2;stroke:#94a3b8;fill:#94a3b8;}#export-1775553690499 .note{stroke:#d97706;fill:#fef3c7;}#export-1775553690499 .noteText,#export-1775553690499 .noteText&gt;tspan{fill:#78350f;stroke:none;}#export-1775553690499 .activation0{fill:#dbeafe;stroke:#3b82f6;}#export-1775553690499 .activation1{fill:#dbeafe;stroke:#3b82f6;}#export-1775553690499 .activation2{fill:#dbeafe;stroke:#3b82f6;}#export-1775553690499 .actorPopupMenu{position:absolute;}#export-1775553690499 .actorPopupMenuPanel{position:absolute;fill:#1e40af;box-shadow:0px 8px 16px 0px rgba(0,0,0,0.2);filter:drop-shadow(3px 5px 2px rgb(0 0 0 / 0.4));}#export-1775553690499 .actor-man line{stroke:#1e3a8a;fill:#1e40af;}#export-1775553690499 .actor-man circle,#export-1775553690499 line{stroke:#1e3a8a;fill:#1e40af;stroke-width:2px;}#export-1775553690499 :root{--mermaid-font-family:"trebuchet ms",verdana,arial,sans-serif;}</style><g/><defs><symbol id="computer" width="24" height="24"><path transform="scale(.5)" d="M2 2v13h20v-13h-20zm18 11h-16v-9h16v9zm-10.228 6l.466-1h3.524l.467 1h-4.457zm14.228 3h-24l2-6h2.104l-1.33 4h18.45l-1.297-4h2.073l2 6zm-5-10h-14v-7h14v7z"/></symbol></defs><defs><symbol id="database" fill-rule="evenodd" clip-rule="evenodd"><path transform="scale(.5)" d="M12.258.001l.256.004.255.005.253.008.251.01.249.012.247.015.246.016.242.019.241.02.239.023.236.024.233.027.231.028.229.031.225.032.223.034.22.036.217.038.214.04.211.041.208.043.205.045.201.046.198.048.194.05.191.051.187.053.183.054.18.056.175.057.172.059.168.06.163.061.16.063.155.064.15.066.074.033.073.033.071.034.07.034.069.035.068.035.067.035.066.035.064.036.064.036.062.036.06.036.06.037.058.037.058.037.055.038.055.038.053.038.052.038.051.039.05.039.048.039.047.039.045.04.044.04.043.04.041.04.04.041.039.041.037.041.036.041.034.041.033.042.032.042.03.042.029.042.027.042.026.043.024.043.023.043.021.043.02.043.018.044.017.043.015.044.013.044.012.044.011.045.009.044.007.045.006.045.004.045.002.045.001.045v17l-.001.045-.002.045-.004.045-.006.045-.007.045-.009.044-.011.045-.012.044-.013.044-.015.044-.017.043-.018.044-.02.043-.021.043-.023.043-.024.043-.026.043-.027.042-.029.042-.03.042-.032.042-.033.042-.034.041-.036.041-.037.041-.039.041-.04.041-.041.04-.043.04-.044.04-.045.04-.047.039-.048.039-.05.039-.051.039-.052.038-.053.038-.055.038-.055.038-.058.037-.058.037-.06.037-.06.036-.062.036-.064.036-.064.036-.066.035-.067.035-.068.035-.069.035-.07.034-.071.034-.073.033-.074.033-.15.066-.155.064-.16.063-.163.061-.168.06-.172.059-.175.057-.18.056-.183.054-.187.053-.191.051-.194.05-.198.048-.201.046-.205.045-.208.043-.211.041-.214.04-.217.038-.22.036-.223.034-.225.032-.229.031-.231.028-.233.027-.236.024-.239.023-.241.02-.242.019-.246.016-.247.015-.249.012-.251.01-.253.008-.255.005-.256.004-.258.001-.258-.001-.256-.004-.255-.005-.253-.008-.251-.01-.249-.012-.247-.015-.245-.016-.243-.019-.241-.02-.238-.023-.236-.024-.234-.027-.231-.028-.228-.031-.226-.032-.223-.034-.22-.036-.217-.038-.214-.04-.211-.041-.208-.043-.204-.045-.201-.046-.198-.048-.195-.05-.19-.051-.187-.053-.184-.054-.179-.056-.176-.057-.172-.059-.167-.06-.164-.061-.159-.063-.155-.064-.151-.066-.074-.033-.072-.033-.072-.034-.07-.034-.069-.035-.068-.035-.067-.035-.066-.035-.064-.036-.063-.036-.062-.036-.061-.036-.06-.037-.058-.037-.057-.037-.056-.038-.055-.038-.053-.038-.052-.038-.051-.039-.049-.039-.049-.039-.046-.039-.046-.04-.044-.04-.043-.04-.041-.04-.04-.041-.039-.041-.037-.041-.036-.041-.034-.041-.033-.042-.032-.042-.03-.042-.029-.042-.027-.042-.026-.043-.024-.043-.023-.043-.021-.043-.02-.043-.018-.044-.017-.043-.015-.044-.013-.044-.012-.044-.011-.045-.009-.044-.007-.045-.006-.045-.004-.045-.002-.045-.001-.045v-17l.001-.045.002-.045.004-.045.006-.045.007-.045.009-.044.011-.045.012-.044.013-.044.015-.044.017-.043.018-.044.02-.043.021-.043.023-.043.024-.043.026-.043.027-.042.029-.042.03-.042.032-.042.033-.042.034-.041.036-.041.037-.041.039-.041.04-.041.041-.04.043-.04.044-.04.046-.04.046-.039.049-.039.049-.039.051-.039.052-.038.053-.038.055-.038.056-.038.057-.037.058-.037.06-.037.061-.036.062-.036.063-.036.064-.036.066-.035.067-.035.068-.035.069-.035.07-.034.072-.034.072-.033.074-.033.151-.066.155-.064.159-.063.164-.061.167-.06.172-.059.176-.057.179-.056.184-.054.187-.053.19-.051.195-.05.198-.048.201-.046.204-.045.208-.043.211-.041.214-.04.217-.038.22-.036.223-.034.226-.032.228-.031.231-.028.234-.027.236-.024.238-.023.241-.02.243-.019.245-.016.247-.015.249-.012.251-.01.253-.008.255-.005.256-.004.258-.001.258.001zm-9.258 20.499v.01l.001.021.003.021.004.022.005.021.006.022.007.022.009.023.01.022.011.023.012.023.013.023.015.023.016.024.017.023.018.024.019.024.021.024.022.025.023.024.024.025.052.049.056.05.061.051.066.051.07.051.075.051.079.052.084.052.088.052.092.052.097.052.102.051.105.052.11.052.114.051.119.051.123.051.127.05.131.05.135.05.139.048.144.049.147.047.152.047.155.047.16.045.163.045.167.043.171.043.176.041.178.041.183.039.187.039.19.037.194.035.197.035.202.033.204.031.209.03.212.029.216.027.219.025.222.024.226.021.23.02.233.018.236.016.24.015.243.012.246.01.249.008.253.005.256.004.259.001.26-.001.257-.004.254-.005.25-.008.247-.011.244-.012.241-.014.237-.016.233-.018.231-.021.226-.021.224-.024.22-.026.216-.027.212-.028.21-.031.205-.031.202-.034.198-.034.194-.036.191-.037.187-.039.183-.04.179-.04.175-.042.172-.043.168-.044.163-.045.16-.046.155-.046.152-.047.148-.048.143-.049.139-.049.136-.05.131-.05.126-.05.123-.051.118-.052.114-.051.11-.052.106-.052.101-.052.096-.052.092-.052.088-.053.083-.051.079-.052.074-.052.07-.051.065-.051.06-.051.056-.05.051-.05.023-.024.023-.025.021-.024.02-.024.019-.024.018-.024.017-.024.015-.023.014-.024.013-.023.012-.023.01-.023.01-.022.008-.022.006-.022.006-.022.004-.022.004-.021.001-.021.001-.021v-4.127l-.077.055-.08.053-.083.054-.085.053-.087.052-.09.052-.093.051-.095.05-.097.05-.1.049-.102.049-.105.048-.106.047-.109.047-.111.046-.114.045-.115.045-.118.044-.12.043-.122.042-.124.042-.126.041-.128.04-.13.04-.132.038-.134.038-.135.037-.138.037-.139.035-.142.035-.143.034-.144.033-.147.032-.148.031-.15.03-.151.03-.153.029-.154.027-.156.027-.158.026-.159.025-.161.024-.162.023-.163.022-.165.021-.166.02-.167.019-.169.018-.169.017-.171.016-.173.015-.173.014-.175.013-.175.012-.177.011-.178.01-.179.008-.179.008-.181.006-.182.005-.182.004-.184.003-.184.002h-.37l-.184-.002-.184-.003-.182-.004-.182-.005-.181-.006-.179-.008-.179-.008-.178-.01-.176-.011-.176-.012-.175-.013-.173-.014-.172-.015-.171-.016-.17-.017-.169-.018-.167-.019-.166-.02-.165-.021-.163-.022-.162-.023-.161-.024-.159-.025-.157-.026-.156-.027-.155-.027-.153-.029-.151-.03-.15-.03-.148-.031-.146-.032-.145-.033-.143-.034-.141-.035-.14-.035-.137-.037-.136-.037-.134-.038-.132-.038-.13-.04-.128-.04-.126-.041-.124-.042-.122-.042-.12-.044-.117-.043-.116-.045-.113-.045-.112-.046-.109-.047-.106-.047-.105-.048-.102-.049-.1-.049-.097-.05-.095-.05-.093-.052-.09-.051-.087-.052-.085-.053-.083-.054-.08-.054-.077-.054v4.127zm0-5.654v.011l.001.021.003.021.004.021.005.022.006.022.007.022.009.022.01.022.011.023.012.023.013.023.015.024.016.023.017.024.018.024.019.024.021.024.022.024.023.025.024.024.052.05.056.05.061.05.066.051.07.051.075.052.079.051.084.052.088.052.092.052.097.052.102.052.105.052.11.051.114.051.119.052.123.05.127.051.131.05.135.049.139.049.144.048.147.048.152.047.155.046.16.045.163.045.167.044.171.042.176.042.178.04.183.04.187.038.19.037.194.036.197.034.202.033.204.032.209.03.212.028.216.027.219.025.222.024.226.022.23.02.233.018.236.016.24.014.243.012.246.01.249.008.253.006.256.003.259.001.26-.001.257-.003.254-.006.25-.008.247-.01.244-.012.241-.015.237-.016.233-.018.231-.02.226-.022.224-.024.22-.025.216-.027.212-.029.21-.03.205-.032.202-.033.198-.035.194-.036.191-.037.187-.039.183-.039.179-.041.175-.042.172-.043.168-.044.163-.045.16-.045.155-.047.152-.047.148-.048.143-.048.139-.05.136-.049.131-.05.126-.051.123-.051.118-.051.114-.052.11-.052.106-.052.101-.052.096-.052.092-.052.088-.052.083-.052.079-.052.074-.051.07-.052.065-.051.06-.05.056-.051.051-.049.023-.025.023-.024.021-.025.02-.024.019-.024.018-.024.017-.024.015-.023.014-.023.013-.024.012-.022.01-.023.01-.023.008-.022.006-.022.006-.022.004-.021.004-.022.001-.021.001-.021v-4.139l-.077.054-.08.054-.083.054-.085.052-.087.053-.09.051-.093.051-.095.051-.097.05-.1.049-.102.049-.105.048-.106.047-.109.047-.111.046-.114.045-.115.044-.118.044-.12.044-.122.042-.124.042-.126.041-.128.04-.13.039-.132.039-.134.038-.135.037-.138.036-.139.036-.142.035-.143.033-.144.033-.147.033-.148.031-.15.03-.151.03-.153.028-.154.028-.156.027-.158.026-.159.025-.161.024-.162.023-.163.022-.165.021-.166.02-.167.019-.169.018-.169.017-.171.016-.173.015-.173.014-.175.013-.175.012-.177.011-.178.009-.179.009-.179.007-.181.007-.182.005-.182.004-.184.003-.184.002h-.37l-.184-.002-.184-.003-.182-.004-.182-.005-.181-.007-.179-.007-.179-.009-.178-.009-.176-.011-.176-.012-.175-.013-.173-.014-.172-.015-.171-.016-.17-.017-.169-.018-.167-.019-.166-.02-.165-.021-.163-.022-.162-.023-.161-.024-.159-.025-.157-.026-.156-.027-.155-.028-.153-.028-.151-.03-.15-.03-.148-.031-.146-.033-.145-.033-.143-.033-.141-.035-.14-.036-.137-.036-.136-.037-.134-.038-.132-.039-.13-.039-.128-.04-.126-.041-.124-.042-.122-.043-.12-.043-.117-.044-.116-.044-.113-.046-.112-.046-.109-.046-.106-.047-.105-.048-.102-.049-.1-.049-.097-.05-.095-.051-.093-.051-.09-.051-.087-.053-.085-.052-.083-.054-.08-.054-.077-.054v4.139zm0-5.666v.011l.001.02.003.022.004.021.005.022.006.021.007.022.009.023.01.022.011.023.012.023.013.023.015.023.016.024.017.024.018.023.019.024.021.025.022.024.023.024.024.025.052.05.056.05.061.05.066.051.07.051.075.052.079.051.084.052.088.052.092.052.097.052.102.052.105.051.11.052.114.051.119.051.123.051.127.05.131.05.135.05.139.049.144.048.147.048.152.047.155.046.16.045.163.045.167.043.171.043.176.042.178.04.183.04.187.038.19.037.194.036.197.034.202.033.204.032.209.03.212.028.216.027.219.025.222.024.226.021.23.02.233.018.236.017.24.014.243.012.246.01.249.008.253.006.256.003.259.001.26-.001.257-.003.254-.006.25-.008.247-.01.244-.013.241-.014.237-.016.233-.018.231-.02.226-.022.224-.024.22-.025.216-.027.212-.029.21-.03.205-.032.202-.033.198-.035.194-.036.191-.037.187-.039.183-.039.179-.041.175-.042.172-.043.168-.044.163-.045.16-.045.155-.047.152-.047.148-.048.143-.049.139-.049.136-.049.131-.051.126-.05.123-.051.118-.052.114-.051.11-.052.106-.052.101-.052.096-.052.092-.052.088-.052.083-.052.079-.052.074-.052.07-.051.065-.051.06-.051.056-.05.051-.049.023-.025.023-.025.021-.024.02-.024.019-.024.018-.024.017-.024.015-.023.014-.024.013-.023.012-.023.01-.022.01-.023.008-.022.006-.022.006-.022.004-.022.004-.021.001-.021.001-.021v-4.153l-.077.054-.08.054-.083.053-.085.053-.087.053-.09.051-.093.051-.095.051-.097.05-.1.049-.102.048-.105.048-.106.048-.109.046-.111.046-.114.046-.115.044-.118.044-.12.043-.122.043-.124.042-.126.041-.128.04-.13.039-.132.039-.134.038-.135.037-.138.036-.139.036-.142.034-.143.034-.144.033-.147.032-.148.032-.15.03-.151.03-.153.028-.154.028-.156.027-.158.026-.159.024-.161.024-.162.023-.163.023-.165.021-.166.02-.167.019-.169.018-.169.017-.171.016-.173.015-.173.014-.175.013-.175.012-.177.01-.178.01-.179.009-.179.007-.181.006-.182.006-.182.004-.184.003-.184.001-.185.001-.185-.001-.184-.001-.184-.003-.182-.004-.182-.006-.181-.006-.179-.007-.179-.009-.178-.01-.176-.01-.176-.012-.175-.013-.173-.014-.172-.015-.171-.016-.17-.017-.169-.018-.167-.019-.166-.02-.165-.021-.163-.023-.162-.023-.161-.024-.159-.024-.157-.026-.156-.027-.155-.028-.153-.028-.151-.03-.15-.03-.148-.032-.146-.032-.145-.033-.143-.034-.141-.034-.14-.036-.137-.036-.136-.037-.134-.038-.132-.039-.13-.039-.128-.041-.126-.041-.124-.041-.122-.043-.12-.043-.117-.044-.116-.044-.113-.046-.112-.046-.109-.046-.106-.048-.105-.048-.102-.048-.1-.05-.097-.049-.095-.051-.093-.051-.09-.052-.087-.052-.085-.053-.083-.053-.08-.054-.077-.054v4.153zm8.74-8.179l-.257.004-.254.005-.25.008-.247.011-.244.012-.241.014-.237.016-.233.018-.231.021-.226.022-.224.023-.22.026-.216.027-.212.028-.21.031-.205.032-.202.033-.198.034-.194.036-.191.038-.187.038-.183.04-.179.041-.175.042-.172.043-.168.043-.163.045-.16.046-.155.046-.152.048-.148.048-.143.048-.139.049-.136.05-.131.05-.126.051-.123.051-.118.051-.114.052-.11.052-.106.052-.101.052-.096.052-.092.052-.088.052-.083.052-.079.052-.074.051-.07.052-.065.051-.06.05-.056.05-.051.05-.023.025-.023.024-.021.024-.02.025-.019.024-.018.024-.017.023-.015.024-.014.023-.013.023-.012.023-.01.023-.01.022-.008.022-.006.023-.006.021-.004.022-.004.021-.001.021-.001.021.001.021.001.021.004.021.004.022.006.021.006.023.008.022.01.022.01.023.012.023.013.023.014.023.015.024.017.023.018.024.019.024.02.025.021.024.023.024.023.025.051.05.056.05.06.05.065.051.07.052.074.051.079.052.083.052.088.052.092.052.096.052.101.052.106.052.11.052.114.052.118.051.123.051.126.051.131.05.136.05.139.049.143.048.148.048.152.048.155.046.16.046.163.045.168.043.172.043.175.042.179.041.183.04.187.038.191.038.194.036.198.034.202.033.205.032.21.031.212.028.216.027.22.026.224.023.226.022.231.021.233.018.237.016.241.014.244.012.247.011.25.008.254.005.257.004.26.001.26-.001.257-.004.254-.005.25-.008.247-.011.244-.012.241-.014.237-.016.233-.018.231-.021.226-.022.224-.023.22-.026.216-.027.212-.028.21-.031.205-.032.202-.033.198-.034.194-.036.191-.038.187-.038.183-.04.179-.041.175-.042.172-.043.168-.043.163-.045.16-.046.155-.046.152-.048.148-.048.143-.048.139-.049.136-.05.131-.05.126-.051.123-.051.118-.051.114-.052.11-.052.106-.052.101-.052.096-.052.092-.052.088-.052.083-.052.079-.052.074-.051.07-.052.065-.051.06-.05.056-.05.051-.05.023-.025.023-.024.021-.024.02-.025.019-.024.018-.024.017-.023.015-.024.014-.023.013-.023.012-.023.01-.023.01-.022.008-.022.006-.023.006-.021.004-.022.004-.021.001-.021.001-.021-.001-.021-.001-.021-.004-.021-.004-.022-.006-.021-.006-.023-.008-.022-.01-.022-.01-.023-.012-.023-.013-.023-.014-.023-.015-.024-.017-.023-.018-.024-.019-.024-.02-.025-.021-.024-.023-.024-.023-.025-.051-.05-.056-.05-.06-.05-.065-.051-.07-.052-.074-.051-.079-.052-.083-.052-.088-.052-.092-.052-.096-.052-.101-.052-.106-.052-.11-.052-.114-.052-.118-.051-.123-.051-.126-.051-.131-.05-.136-.05-.139-.049-.143-.048-.148-.048-.152-.048-.155-.046-.16-.046-.163-.045-.168-.043-.172-.043-.175-.042-.179-.041-.183-.04-.187-.038-.191-.038-.194-.036-.198-.034-.202-.033-.205-.032-.21-.031-.212-.028-.216-.027-.22-.026-.224-.023-.226-.022-.231-.021-.233-.018-.237-.016-.241-.014-.244-.012-.247-.011-.25-.008-.254-.005-.257-.004-.26-.001-.26.001z"/></symbol></defs><defs><symbol id="clock" width="24" height="24"><path transform="scale(.5)" d="M12 2c5.514 0 10 4.486 10 10s-4.486 10-10 10-10-4.486-10-10 4.486-10 10-10zm0-2c-6.627 0-12 5.373-12 12s5.373 12 12 12 12-5.373 12-12-5.373-12-12-12zm5.848 12.459c.202.038.202.333.001.372-1.907.361-6.045 1.111-6.547 1.111-.719 0-1.301-.582-1.301-1.301 0-.512.77-5.447 1.125-7.445.034-.192.312-.181.343.014l.985 6.238 5.394 1.011z"/></symbol></defs><defs><marker id="arrowhead" refX="7.9" refY="5" markerUnits="userSpaceOnUse" markerWidth="12" markerHeight="12" orient="auto-start-reverse"><path d="M -1 0 L 10 5 L 0 10 z"/></marker></defs><defs><marker id="crosshead" markerWidth="15" markerHeight="8" orient="auto" refX="4" refY="4.5"><path fill="none" stroke="#000000" stroke-width="1pt" d="M 1,2 L 6,7 M 6,2 L 1,7" style="stroke-dasharray: 0, 0;"/></marker></defs><defs><marker id="filled-head" refX="15.5" refY="7" markerWidth="20" markerHeight="28" orient="auto"><path d="M 18,7 L9,13 L14,7 L9,1 Z"/></marker></defs><defs><marker id="sequencenumber" refX="15" refY="15" markerWidth="60" markerHeight="40" orient="auto"><circle cx="15" cy="15" r="6"/></marker></defs><g><rect x="501" y="169" fill="#EDF2AE" stroke="#666" width="10" height="508" class="activation0"/></g><g><rect x="707" y="227" fill="#EDF2AE" stroke="#666" width="10" height="384" class="activation0"/></g><g><rect x="1116" y="283" fill="#EDF2AE" stroke="#666" width="10" height="318" class="activation0"/></g><g><rect x="1728" y="339" fill="#EDF2AE" stroke="#666" width="10" height="252" class="activation0"/></g><g><rect x="2173" y="441" fill="#EDF2AE" stroke="#666" width="10" height="74" class="activation0"/></g><g><rect x="2950" y="499" fill="#EDF2AE" stroke="#666" width="10" height="18" class="activation0"/></g><g><line x1="1106" y1="347" x2="2970" y2="347" class="loopLine"/><line x1="2970" y1="347" x2="2970" y2="591" class="loopLine"/><line x1="1106" y1="591" x2="2970" y2="591" class="loopLine"/><line x1="1106" y1="347" x2="1106" y2="591" class="loopLine"/><line x1="1106" y1="540" x2="2970" y2="540" class="loopLine" style="stroke-dasharray: 3, 3;"/><polygon points="1106,347 1156,347 1156,360 1147.6,367 1106,367" class="labelBox"/><text x="1131" y="360" text-anchor="middle" dominant-baseline="middle" alignment-baseline="middle" class="labelText" style="font-size: 16px; font-weight: 400;">alt</text><text x="2063" y="365" text-anchor="middle" class="loopText" style="font-size: 16px; font-weight: 400;"><tspan x="2063">[valid bank play]</tspan></text><text x="2038" y="558" text-anchor="middle" class="loopText" style="font-size: 16px; font-weight: 400;">[invalid bank play]</text></g><g><rect x="501" y="781" fill="#EDF2AE" stroke="#666" width="10" height="512" class="activation0"/></g><g><rect x="707" y="839" fill="#EDF2AE" stroke="#666" width="10" height="388" class="activation0"/></g><g><rect x="1116" y="895" fill="#EDF2AE" stroke="#666" width="10" height="322" class="activation0"/></g><g><rect x="1728" y="951" fill="#EDF2AE" stroke="#666" width="10" height="256" class="activation0"/></g><g><rect x="2173" y="1055" fill="#EDF2AE" stroke="#666" width="10" height="74" class="activation0"/></g><g><rect x="2950" y="1113" fill="#EDF2AE" stroke="#666" width="10" height="18" class="activation0"/></g><g><line x1="1106" y1="959" x2="2970" y2="959" class="loopLine"/><line x1="2970" y1="959" x2="2970" y2="1207" class="loopLine"/><line x1="1106" y1="1207" x2="2970" y2="1207" class="loopLine"/><line x1="1106" y1="959" x2="1106" y2="1207" class="loopLine"/><line x1="1106" y1="1154" x2="2970" y2="1154" class="loopLine" style="stroke-dasharray: 3, 3;"/><polygon points="1106,959 1156,959 1156,972 1147.6,979 1106,979" class="labelBox"/><text x="1131" y="972" text-anchor="middle" dominant-baseline="middle" alignment-baseline="middle" class="labelText" style="font-size: 16px; font-weight: 400;">alt</text><text x="2063" y="977" text-anchor="middle" class="loopText" style="font-size: 16px; font-weight: 400;"><tspan x="2063">[valid property play]</tspan></text><text x="2038" y="1172" text-anchor="middle" class="loopText" style="font-size: 16px; font-weight: 400;">[invalid property play]</text></g><g><rect x="285.5" y="1399" fill="#EDF2AE" stroke="#666" width="10" height="882" class="activation0"/></g><g><rect x="501" y="1553" fill="#EDF2AE" stroke="#666" width="10" height="618" class="activation0"/></g><g><rect x="707" y="1609" fill="#EDF2AE" stroke="#666" width="10" height="496" class="activation0"/></g><g><rect x="1116" y="1665" fill="#EDF2AE" stroke="#666" width="10" height="430" class="activation0"/></g><g><rect x="1728" y="1721" fill="#EDF2AE" stroke="#666" width="10" height="364" class="activation0"/></g><g><rect x="2173" y="1825" fill="#EDF2AE" stroke="#666" width="10" height="182" class="activation0"/></g><g><rect x="2950" y="1883" fill="#EDF2AE" stroke="#666" width="10" height="18" class="activation0"/></g><g><rect x="2750" y="1947" fill="#EDF2AE" stroke="#666" width="10" height="50" class="activation0"/></g><g><line x1="1106" y1="1729" x2="2970" y2="1729" class="loopLine"/><line x1="2970" y1="1729" x2="2970" y2="2085" class="loopLine"/><line x1="1106" y1="2085" x2="2970" y2="2085" class="loopLine"/><line x1="1106" y1="1729" x2="1106" y2="2085" class="loopLine"/><line x1="1106" y1="2032" x2="2970" y2="2032" class="loopLine" style="stroke-dasharray: 3, 3;"/><polygon points="1106,1729 1156,1729 1156,1742 1147.6,1749 1106,1749" class="labelBox"/><text x="1131" y="1742" text-anchor="middle" dominant-baseline="middle" alignment-baseline="middle" class="labelText" style="font-size: 16px; font-weight: 400;">alt</text><text x="2063" y="1747" text-anchor="middle" class="loopText" style="font-size: 16px; font-weight: 400;"><tspan x="2063">[valid action play]</tspan></text><text x="2038" y="2050" text-anchor="middle" class="loopText" style="font-size: 16px; font-weight: 400;">[invalid action play]</text></g><g><line x1="64" y1="1407" x2="2980" y2="1407" class="loopLine"/><line x1="2980" y1="1407" x2="2980" y2="2281" class="loopLine"/><line x1="64" y1="2281" x2="2980" y2="2281" class="loopLine"/><line x1="64" y1="1407" x2="64" y2="2281" class="loopLine"/><line x1="64" y1="2186" x2="2980" y2="2186" class="loopLine" style="stroke-dasharray: 3, 3;"/><polygon points="64,1407 114,1407 114,1420 105.6,1427 64,1427" class="labelBox"/><text x="89" y="1420" text-anchor="middle" dominant-baseline="middle" alignment-baseline="middle" class="labelText" style="font-size: 16px; font-weight: 400;">alt</text><text x="1547" y="1425" text-anchor="middle" class="loopText" style="font-size: 16px; font-weight: 400;"><tspan x="1547">[context filled]</tspan></text><text x="1522" y="2204" text-anchor="middle" class="loopText" style="font-size: 16px; font-weight: 400;">[context not filled]</text></g><g><line x1="54" y1="75" x2="2990" y2="75" class="loopLine"/><line x1="2990" y1="75" x2="2990" y2="2291" class="loopLine"/><line x1="54" y1="2291" x2="2990" y2="2291" class="loopLine"/><line x1="54" y1="75" x2="54" y2="2291" class="loopLine"/><line x1="54" y1="692" x2="2990" y2="692" class="loopLine" style="stroke-dasharray: 3, 3;"/><line x1="54" y1="1308" x2="2990" y2="1308" class="loopLine" style="stroke-dasharray: 3, 3;"/><polygon points="54,75 104,75 104,88 95.6,95 54,95" class="labelBox"/><text x="79" y="88" text-anchor="middle" dominant-baseline="middle" alignment-baseline="middle" class="labelText" style="font-size: 16px; font-weight: 400;">alt</text><text x="1547" y="93" text-anchor="middle" class="loopText" style="font-size: 16px; font-weight: 400;"><tspan x="1547">[Money card]</tspan></text><text x="1522" y="710" text-anchor="middle" class="loopText" style="font-size: 16px; font-weight: 400;">[Property card]</text><text x="1522" y="1326" text-anchor="middle" class="loopText" style="font-size: 16px; font-weight: 400;">[Action card]</text></g><text x="289" y="128" text-anchor="middle" dominant-baseline="middle" alignment-baseline="middle" class="messageText" dy="1em" style="font-size: 16px; font-weight: 400;">handleBankMoney(handIndex: int, card: Card)</text><line x1="76" y1="169" x2="502" y2="169" class="messageLine0" stroke-width="2" stroke="none" marker-end="url(#arrowhead)" style="fill: none;"/><text x="610" y="184" text-anchor="middle" dominant-baseline="middle" alignment-baseline="middle" class="messageText" dy="1em" style="font-size: 16px; font-weight: 400;">execute()</text><line x1="511" y1="225" x2="708" y2="225" class="messageLine0" stroke-width="2" stroke="none" marker-end="url(#arrowhead)" style="fill: none;"/><text x="917" y="240" text-anchor="middle" dominant-baseline="middle" alignment-baseline="middle" class="messageText" dy="1em" style="font-size: 16px; font-weight: 400;">bankMoney(handIndex: int)</text><line x1="717" y1="281" x2="1117" y2="281" class="messageLine0" stroke-width="2" stroke="none" marker-end="url(#arrowhead)" style="fill: none;"/><text x="1428" y="296" text-anchor="middle" dominant-baseline="middle" alignment-baseline="middle" class="messageText" dy="1em" style="font-size: 16px; font-weight: 400;">handleBankMoney(model: GameModel, handIndex: int)</text><line x1="1126" y1="337" x2="1729" y2="337" class="messageLine0" stroke-width="2" stroke="none" marker-end="url(#arrowhead)" style="fill: none;"/><text x="1956" y="398" text-anchor="middle" dominant-baseline="middle" alignment-baseline="middle" class="messageText" dy="1em" style="font-size: 16px; font-weight: 400;">bankMoneyCard(handIndex: int)</text><line x1="1738" y1="439" x2="2174" y2="439" class="messageLine0" stroke-width="2" stroke="none" marker-end="url(#arrowhead)" style="fill: none;"/><text x="2567" y="454" text-anchor="middle" dominant-baseline="middle" alignment-baseline="middle" class="messageText" dy="1em" style="font-size: 16px; font-weight: 400;">removeFromHand(c: Card)</text><line x1="2183" y1="495" x2="2951" y2="495" class="messageLine0" stroke-width="2" stroke="none" marker-end="url(#arrowhead)" style="fill: none;"/><text x="2568" y="510" text-anchor="middle" dominant-baseline="middle" alignment-baseline="middle" class="messageText" dy="1em" style="font-size: 16px; font-weight: 400;">​</text><line x1="2950" y1="505" x2="2186" y2="505" class="messageLine1" stroke-width="2" stroke="none" marker-end="url(#arrowhead)" style="stroke-dasharray: 3, 3; fill: none;"/><text x="1957" y="520" text-anchor="middle" dominant-baseline="middle" alignment-baseline="middle" class="messageText" dy="1em" style="font-size: 16px; font-weight: 400;">​</text><line x1="2173" y1="515" x2="1741" y2="515" class="messageLine1" stroke-width="2" stroke="none" marker-end="url(#arrowhead)" style="stroke-dasharray: 3, 3; fill: none;"/><text x="1429" y="530" text-anchor="middle" dominant-baseline="middle" alignment-baseline="middle" class="messageText" dy="1em" style="font-size: 16px; font-weight: 400;">​</text><line x1="1728" y1="525" x2="1129" y2="525" class="messageLine1" stroke-width="2" stroke="none" marker-end="url(#arrowhead)" style="stroke-dasharray: 3, 3; fill: none;"/><text x="1429" y="586" text-anchor="middle" dominant-baseline="middle" alignment-baseline="middle" class="messageText" dy="1em" style="font-size: 16px; font-weight: 400;">​</text><line x1="1728" y1="581" x2="1129" y2="581" class="messageLine1" stroke-width="2" stroke="none" marker-end="url(#arrowhead)" style="stroke-dasharray: 3, 3; fill: none;"/><text x="918" y="606" text-anchor="middle" dominant-baseline="middle" alignment-baseline="middle" class="messageText" dy="1em" style="font-size: 16px; font-weight: 400;">​</text><line x1="1116" y1="601" x2="720" y2="601" class="messageLine1" stroke-width="2" stroke="none" marker-end="url(#arrowhead)" style="stroke-dasharray: 3, 3; fill: none;"/><text x="611" y="616" text-anchor="middle" dominant-baseline="middle" alignment-baseline="middle" class="messageText" dy="1em" style="font-size: 16px; font-weight: 400;">​</text><line x1="707" y1="611" x2="514" y2="611" class="messageLine1" stroke-width="2" stroke="none" marker-end="url(#arrowhead)" style="stroke-dasharray: 3, 3; fill: none;"/><text x="290" y="626" text-anchor="middle" dominant-baseline="middle" alignment-baseline="middle" class="messageText" dy="1em" style="font-size: 16px; font-weight: 400;">refreshAndScheduleAi()</text><line x1="501" y1="667" x2="79" y2="667" class="messageLine0" stroke-width="2" stroke="none" marker-end="url(#arrowhead)" style="fill: none;"/><text x="287" y="682" text-anchor="middle" dominant-baseline="middle" alignment-baseline="middle" class="messageText" dy="1em" style="font-size: 16px; font-weight: 400;">​</text><line x1="76" y1="677" x2="498" y2="677" class="messageLine1" stroke-width="2" stroke="none" marker-end="url(#arrowhead)" style="stroke-dasharray: 3, 3; fill: none;"/><text x="289" y="740" text-anchor="middle" dominant-baseline="middle" alignment-baseline="middle" class="messageText" dy="1em" style="font-size: 16px; font-weight: 400;">handlePlayProperty(handIndex: int, card: Card)</text><line x1="76" y1="781" x2="502" y2="781" class="messageLine0" stroke-width="2" stroke="none" marker-end="url(#arrowhead)" style="fill: none;"/><text x="610" y="796" text-anchor="middle" dominant-baseline="middle" alignment-baseline="middle" class="messageText" dy="1em" style="font-size: 16px; font-weight: 400;">execute()</text><line x1="511" y1="837" x2="708" y2="837" class="messageLine0" stroke-width="2" stroke="none" marker-end="url(#arrowhead)" style="fill: none;"/><text x="917" y="852" text-anchor="middle" dominant-baseline="middle" alignment-baseline="middle" class="messageText" dy="1em" style="font-size: 16px; font-weight: 400;">playProperty(handIndex: int)</text><line x1="717" y1="893" x2="1117" y2="893" class="messageLine0" stroke-width="2" stroke="none" marker-end="url(#arrowhead)" style="fill: none;"/><text x="1428" y="908" text-anchor="middle" dominant-baseline="middle" alignment-baseline="middle" class="messageText" dy="1em" style="font-size: 16px; font-weight: 400;">handlePlayProperty(model: GameModel, handIndex: int)</text><line x1="1126" y1="949" x2="1729" y2="949" class="messageLine0" stroke-width="2" stroke="none" marker-end="url(#arrowhead)" style="fill: none;"/><text x="1956" y="1012" text-anchor="middle" dominant-baseline="middle" alignment-baseline="middle" class="messageText" dy="1em" style="font-size: 16px; font-weight: 400;">playPropertyCard(handIndex: int)</text><line x1="1738" y1="1053" x2="2174" y2="1053" class="messageLine0" stroke-width="2" stroke="none" marker-end="url(#arrowhead)" style="fill: none;"/><text x="2567" y="1068" text-anchor="middle" dominant-baseline="middle" alignment-baseline="middle" class="messageText" dy="1em" style="font-size: 16px; font-weight: 400;">removeFromHand(c: Card)</text><line x1="2183" y1="1109" x2="2951" y2="1109" class="messageLine0" stroke-width="2" stroke="none" marker-end="url(#arrowhead)" style="fill: none;"/><text x="2568" y="1124" text-anchor="middle" dominant-baseline="middle" alignment-baseline="middle" class="messageText" dy="1em" style="font-size: 16px; font-weight: 400;">​</text><line x1="2950" y1="1119" x2="2186" y2="1119" class="messageLine1" stroke-width="2" stroke="none" marker-end="url(#arrowhead)" style="stroke-dasharray: 3, 3; fill: none;"/><text x="1957" y="1134" text-anchor="middle" dominant-baseline="middle" alignment-baseline="middle" class="messageText" dy="1em" style="font-size: 16px; font-weight: 400;">​</text><line x1="2173" y1="1129" x2="1741" y2="1129" class="messageLine1" stroke-width="2" stroke="none" marker-end="url(#arrowhead)" style="stroke-dasharray: 3, 3; fill: none;"/><text x="1429" y="1144" text-anchor="middle" dominant-baseline="middle" alignment-baseline="middle" class="messageText" dy="1em" style="font-size: 16px; font-weight: 400;">​</text><line x1="1728" y1="1139" x2="1129" y2="1139" class="messageLine1" stroke-width="2" stroke="none" marker-end="url(#arrowhead)" style="stroke-dasharray: 3, 3; fill: none;"/><text x="1429" y="1202" text-anchor="middle" dominant-baseline="middle" alignment-baseline="middle" class="messageText" dy="1em" style="font-size: 16px; font-weight: 400;">​</text><line x1="1728" y1="1197" x2="1129" y2="1197" class="messageLine1" stroke-width="2" stroke="none" marker-end="url(#arrowhead)" style="stroke-dasharray: 3, 3; fill: none;"/><text x="918" y="1222" text-anchor="middle" dominant-baseline="middle" alignment-baseline="middle" class="messageText" dy="1em" style="font-size: 16px; font-weight: 400;">​</text><line x1="1116" y1="1217" x2="720" y2="1217" class="messageLine1" stroke-width="2" stroke="none" marker-end="url(#arrowhead)" style="stroke-dasharray: 3, 3; fill: none;"/><text x="611" y="1232" text-anchor="middle" dominant-baseline="middle" alignment-baseline="middle" class="messageText" dy="1em" style="font-size: 16px; font-weight: 400;">​</text><line x1="707" y1="1227" x2="514" y2="1227" class="messageLine1" stroke-width="2" stroke="none" marker-end="url(#arrowhead)" style="stroke-dasharray: 3, 3; fill: none;"/><text x="290" y="1242" text-anchor="middle" dominant-baseline="middle" alignment-baseline="middle" class="messageText" dy="1em" style="font-size: 16px; font-weight: 400;">refreshAndScheduleAi()</text><line x1="501" y1="1283" x2="79" y2="1283" class="messageLine0" stroke-width="2" stroke="none" marker-end="url(#arrowhead)" style="fill: none;"/><text x="287" y="1298" text-anchor="middle" dominant-baseline="middle" alignment-baseline="middle" class="messageText" dy="1em" style="font-size: 16px; font-weight: 400;">​</text><line x1="76" y1="1293" x2="498" y2="1293" class="messageLine1" stroke-width="2" stroke="none" marker-end="url(#arrowhead)" style="stroke-dasharray: 3, 3; fill: none;"/><text x="181" y="1356" text-anchor="middle" dominant-baseline="middle" alignment-baseline="middle" class="messageText" dy="1em" style="font-size: 16px; font-weight: 400;">fill(...)</text><line x1="76" y1="1397" x2="286.5" y2="1397" class="messageLine0" stroke-width="2" stroke="none" marker-end="url(#arrowhead)" style="fill: none;"/><text x="182" y="1458" text-anchor="middle" dominant-baseline="middle" alignment-baseline="middle" class="messageText" dy="1em" style="font-size: 16px; font-weight: 400;">boolean</text><line x1="285.5" y1="1495" x2="79" y2="1495" class="messageLine1" stroke-width="2" stroke="none" marker-end="url(#arrowhead)" style="stroke-dasharray: 3, 3; fill: none;"/><text x="289" y="1510" text-anchor="middle" dominant-baseline="middle" alignment-baseline="middle" class="messageText" dy="1em" style="font-size: 16px; font-weight: 400;">handlePlayAction(handIndex: int, card: Card)</text><line x1="76" y1="1551" x2="502" y2="1551" class="messageLine0" stroke-width="2" stroke="none" marker-end="url(#arrowhead)" style="fill: none;"/><text x="610" y="1566" text-anchor="middle" dominant-baseline="middle" alignment-baseline="middle" class="messageText" dy="1em" style="font-size: 16px; font-weight: 400;">execute()</text><line x1="511" y1="1607" x2="708" y2="1607" class="messageLine0" stroke-width="2" stroke="none" marker-end="url(#arrowhead)" style="fill: none;"/><text x="917" y="1622" text-anchor="middle" dominant-baseline="middle" alignment-baseline="middle" class="messageText" dy="1em" style="font-size: 16px; font-weight: 400;">playAction(handIndex: int, ctx: ActionContext)</text><line x1="717" y1="1663" x2="1117" y2="1663" class="messageLine0" stroke-width="2" stroke="none" marker-end="url(#arrowhead)" style="fill: none;"/><text x="1428" y="1678" text-anchor="middle" dominant-baseline="middle" alignment-baseline="middle" class="messageText" dy="1em" style="font-size: 16px; font-weight: 400;">handlePlayAction(model: GameModel, handIndex: int, ctx: ActionContext)</text><line x1="1126" y1="1719" x2="1729" y2="1719" class="messageLine0" stroke-width="2" stroke="none" marker-end="url(#arrowhead)" style="fill: none;"/><text x="1956" y="1782" text-anchor="middle" dominant-baseline="middle" alignment-baseline="middle" class="messageText" dy="1em" style="font-size: 16px; font-weight: 400;">playActionCard(handIndex: int, ctx: ActionContext)</text><line x1="1738" y1="1823" x2="2174" y2="1823" class="messageLine0" stroke-width="2" stroke="none" marker-end="url(#arrowhead)" style="fill: none;"/><text x="2567" y="1838" text-anchor="middle" dominant-baseline="middle" alignment-baseline="middle" class="messageText" dy="1em" style="font-size: 16px; font-weight: 400;">removeFromHand(c: Card)</text><line x1="2183" y1="1879" x2="2951" y2="1879" class="messageLine0" stroke-width="2" stroke="none" marker-end="url(#arrowhead)" style="fill: none;"/><text x="2568" y="1894" text-anchor="middle" dominant-baseline="middle" alignment-baseline="middle" class="messageText" dy="1em" style="font-size: 16px; font-weight: 400;">​</text><line x1="2950" y1="1889" x2="2186" y2="1889" class="messageLine1" stroke-width="2" stroke="none" marker-end="url(#arrowhead)" style="stroke-dasharray: 3, 3; fill: none;"/><text x="2467" y="1904" text-anchor="middle" dominant-baseline="middle" alignment-baseline="middle" class="messageText" dy="1em" style="font-size: 16px; font-weight: 400;">execute(model: GameModel, p: Player, ctx: ActionContext) : boolean</text><line x1="2183" y1="1945" x2="2751" y2="1945" class="messageLine0" stroke-width="2" stroke="none" marker-end="url(#arrowhead)" style="fill: none;"/><text x="2468" y="1960" text-anchor="middle" dominant-baseline="middle" alignment-baseline="middle" class="messageText" dy="1em" style="font-size: 16px; font-weight: 400;">boolean</text><line x1="2750" y1="1997" x2="2186" y2="1997" class="messageLine1" stroke-width="2" stroke="none" marker-end="url(#arrowhead)" style="stroke-dasharray: 3, 3; fill: none;"/><text x="1957" y="2012" text-anchor="middle" dominant-baseline="middle" alignment-baseline="middle" class="messageText" dy="1em" style="font-size: 16px; font-weight: 400;">​</text><line x1="2173" y1="2007" x2="1741" y2="2007" class="messageLine1" stroke-width="2" stroke="none" marker-end="url(#arrowhead)" style="stroke-dasharray: 3, 3; fill: none;"/><text x="1429" y="2022" text-anchor="middle" dominant-baseline="middle" alignment-baseline="middle" class="messageText" dy="1em" style="font-size: 16px; font-weight: 400;">​</text><line x1="1728" y1="2017" x2="1129" y2="2017" class="messageLine1" stroke-width="2" stroke="none" marker-end="url(#arrowhead)" style="stroke-dasharray: 3, 3; fill: none;"/><text x="1429" y="2080" text-anchor="middle" dominant-baseline="middle" alignment-baseline="middle" class="messageText" dy="1em" style="font-size: 16px; font-weight: 400;">​</text><line x1="1728" y1="2075" x2="1129" y2="2075" class="messageLine1" stroke-width="2" stroke="none" marker-end="url(#arrowhead)" style="stroke-dasharray: 3, 3; fill: none;"/><text x="918" y="2100" text-anchor="middle" dominant-baseline="middle" alignment-baseline="middle" class="messageText" dy="1em" style="font-size: 16px; font-weight: 400;">​</text><line x1="1116" y1="2095" x2="720" y2="2095" class="messageLine1" stroke-width="2" stroke="none" marker-end="url(#arrowhead)" style="stroke-dasharray: 3, 3; fill: none;"/><text x="611" y="2110" text-anchor="middle" dominant-baseline="middle" alignment-baseline="middle" class="messageText" dy="1em" style="font-size: 16px; font-weight: 400;">​</text><line x1="707" y1="2105" x2="514" y2="2105" class="messageLine1" stroke-width="2" stroke="none" marker-end="url(#arrowhead)" style="stroke-dasharray: 3, 3; fill: none;"/><text x="290" y="2120" text-anchor="middle" dominant-baseline="middle" alignment-baseline="middle" class="messageText" dy="1em" style="font-size: 16px; font-weight: 400;">refreshAndScheduleAi()</text><line x1="501" y1="2161" x2="79" y2="2161" class="messageLine0" stroke-width="2" stroke="none" marker-end="url(#arrowhead)" style="fill: none;"/><text x="287" y="2176" text-anchor="middle" dominant-baseline="middle" alignment-baseline="middle" class="messageText" dy="1em" style="font-size: 16px; font-weight: 400;">​</text><line x1="76" y1="2171" x2="498" y2="2171" class="messageLine1" stroke-width="2" stroke="none" marker-end="url(#arrowhead)" style="stroke-dasharray: 3, 3; fill: none;"/><text x="182" y="2234" text-anchor="middle" dominant-baseline="middle" alignment-baseline="middle" class="messageText" dy="1em" style="font-size: 16px; font-weight: 400;">boolean</text><line x1="285.5" y1="2271" x2="79" y2="2271" class="messageLine1" stroke-width="2" stroke="none" marker-end="url(#arrowhead)" style="stroke-dasharray: 3, 3; fill: none;"/><g opacity="0.88"/></svg>