<svg xmlns="http://www.w3.org/2000/svg" xmlns:xlink="http://www.w3.org/1999/xlink" contentStyleType="text/css" data-diagram-type="CLASS" height="654px" preserveAspectRatio="none" style="width:2053px;height:654px;background:#FFFFFF;" version="1.1" viewBox="0 0 2053 654" width="2053px" zoomAndPan="magnify"><defs/><g><!--cluster Config (Singleton)--><g class="cluster" data-entity="Config .Singleton." data-source-line="9" data-uid="ent0002" id="cluster_Config .Singleton."><path d="M8.5,6 L153.3828,6 A3.75,3.75 0 0 1 155.8828,8.5 L162.8828,28.2969 L251.5,28.2969 A2.5,2.5 0 0 1 254,30.7969 L254,159.5 A2.5,2.5 0 0 1 251.5,162 L8.5,162 A2.5,2.5 0 0 1 6,159.5 L6,8.5 A2.5,2.5 0 0 1 8.5,6" fill="none" style="stroke:#000000;stroke-width:1.5;"/><line style="stroke:#000000;stroke-width:1.5;" x1="6" x2="162.8828" y1="28.2969" y2="28.2969"/><text fill="#000000" font-family="sans-serif" font-size="14" font-weight="bold" lengthAdjust="spacing" textLength="143.8828" x="10" y="20.9951">Config (Singleton)</text></g><!--cluster MVC & Observer--><g class="cluster" data-entity="MVC . Observer" data-source-line="18" data-uid="ent0004" id="cluster_MVC . Observer"><path d="M76.5,195 L206.6787,195 A3.75,3.75 0 0 1 209.1787,197.5 L216.1787,217.2969 L745.5,217.2969 A2.5,2.5 0 0 1 748,219.7969 L748,527.5 A2.5,2.5 0 0 1 745.5,530 L76.5,530 A2.5,2.5 0 0 1 74,527.5 L74,197.5 A2.5,2.5 0 0 1 76.5,195" fill="none" style="stroke:#000000;stroke-width:1.5;"/><line style="stroke:#000000;stroke-width:1.5;" x1="74" x2="216.1787" y1="217.2969" y2="217.2969"/><text fill="#000000" font-family="sans-serif" font-size="14" font-weight="bold" lengthAdjust="spacing" textLength="129.1787" x="78" y="209.9951">MVC &amp; Observer</text></g><!--cluster Turn Management (State)--><g class="cluster" data-entity="Turn Management .State." data-source-line="42" data-uid="ent0011" id="cluster_Turn Management .State."><path d="M774.5,398 L979.8945,398 A3.75,3.75 0 0 1 982.3945,400.5 L989.3945,420.2969 L1197.5,420.2969 A2.5,2.5 0 0 1 1200,422.7969 L1200,644.5 A2.5,2.5 0 0 1 1197.5,647 L774.5,647 A2.5,2.5 0 0 1 772,644.5 L772,400.5 A2.5,2.5 0 0 1 774.5,398" fill="none" style="stroke:#000000;stroke-width:1.5;"/><line style="stroke:#000000;stroke-width:1.5;" x1="772" x2="989.3945" y1="420.2969" y2="420.2969"/><text fill="#000000" font-family="sans-serif" font-size="14" font-weight="bold" lengthAdjust="spacing" textLength="204.3945" x="776" y="412.9951">Turn Management (State)</text></g><!--cluster Subsystem Interface (Facade)--><g class="cluster" data-entity="Subsystem Interface .Facade." data-source-line="55" data-uid="ent0020" id="cluster_Subsystem Interface .Facade."><path d="M280.5,14 L518.5566,14 A3.75,3.75 0 0 1 521.0566,16.5 L528.0566,36.2969 L528.5,36.2969 A2.5,2.5 0 0 1 531,38.7969 L531,151.5 A2.5,2.5 0 0 1 528.5,154 L280.5,154 A2.5,2.5 0 0 1 278,151.5 L278,16.5 A2.5,2.5 0 0 1 280.5,14" fill="none" style="stroke:#000000;stroke-width:1.5;"/><line style="stroke:#000000;stroke-width:1.5;" x1="278" x2="528.0566" y1="36.2969" y2="36.2969"/><text fill="#000000" font-family="sans-serif" font-size="14" font-weight="bold" lengthAdjust="spacing" textLength="237.0566" x="282" y="28.9951">Subsystem Interface (Facade)</text></g><!--cluster AI Logic (Strategy)--><g class="cluster" data-entity="AI Logic .Strategy." data-source-line="64" data-uid="ent0023" id="cluster_AI Logic .Strategy."><path d="M1494.5,26.5 L1644.209,26.5 A3.75,3.75 0 0 1 1646.709,29 L1653.709,48.7969 L1721.5,48.7969 A2.5,2.5 0 0 1 1724,51.2969 L1724,515 A2.5,2.5 0 0 1 1721.5,517.5 L1494.5,517.5 A2.5,2.5 0 0 1 1492,515 L1492,29 A2.5,2.5 0 0 1 1494.5,26.5" fill="none" style="stroke:#000000;stroke-width:1.5;"/><line style="stroke:#000000;stroke-width:1.5;" x1="1492" x2="1653.709" y1="48.7969" y2="48.7969"/><text fill="#000000" font-family="sans-serif" font-size="14" font-weight="bold" lengthAdjust="spacing" textLength="148.709" x="1496" y="41.4951">AI Logic (Strategy)</text></g><!--cluster Resource Creation (Factory)--><g class="cluster" data-entity="Resource Creation .Factory." data-source-line="77" data-uid="ent0029" id="cluster_Resource Creation .Factory."><path d="M1750.5,22 L1973.7842,22 A3.75,3.75 0 0 1 1976.2842,24.5 L1983.2842,44.2969 L2043.5,44.2969 A2.5,2.5 0 0 1 2046,46.7969 L2046,143.5 A2.5,2.5 0 0 1 2043.5,146 L1750.5,146 A2.5,2.5 0 0 1 1748,143.5 L1748,24.5 A2.5,2.5 0 0 1 1750.5,22" fill="none" style="stroke:#000000;stroke-width:1.5;"/><line style="stroke:#000000;stroke-width:1.5;" x1="1748" x2="1983.2842" y1="44.2969" y2="44.2969"/><text fill="#000000" font-family="sans-serif" font-size="14" font-weight="bold" lengthAdjust="spacing" textLength="222.2842" x="1752" y="36.9951">Resource Creation (Factory)</text></g><!--cluster Action Execution (Command)--><g class="cluster" data-entity="Action Execution .Command." data-source-line="84" data-uid="ent0031" id="cluster_Action Execution .Command."><path d="M1226.5,406 L1456.1895,406 A3.75,3.75 0 0 1 1458.6895,408.5 L1465.6895,428.2969 L1465.5,428.2969 A2.5,2.5 0 0 1 1468,430.7969 L1468,644.5 A2.5,2.5 0 0 1 1465.5,647 L1226.5,647 A2.5,2.5 0 0 1 1224,644.5 L1224,408.5 A2.5,2.5 0 0 1 1226.5,406" fill="none" style="stroke:#000000;stroke-width:1.5;"/><line style="stroke:#000000;stroke-width:1.5;" x1="1224" x2="1465.6895" y1="428.2969" y2="428.2969"/><text fill="#000000" font-family="sans-serif" font-size="14" font-weight="bold" lengthAdjust="spacing" textLength="228.6895" x="1228" y="420.9951">Action Execution (Command)</text></g><!--class GameConfig--><g class="entity" data-entity="GameConfig" data-source-line="10" data-uid="ent0003" id="entity_GameConfig"><rect fill="#FFFFFF" height="105.1563" rx="2.5" ry="2.5" style="stroke:#263238;stroke-width:0.5;" width="215.2256" x="22.5" y="41"/><ellipse cx="82.564" cy="61.1328" fill="#ADD1B2" rx="11" ry="11" style="stroke:#181818;stroke-width:1;"/><path d="M85.5327,66.7734 Q84.9546,67.0703 84.314,67.2109 Q83.6733,67.3672 82.9702,67.3672 Q80.4702,67.3672 79.1421,65.7266 Q77.8296,64.0703 77.8296,60.9453 Q77.8296,57.8203 79.1421,56.1641 Q80.4702,54.5078 82.9702,54.5078 Q83.6733,54.5078 84.314,54.6641 Q84.9702,54.8203 85.5327,55.1172 L85.5327,57.8359 Q84.9077,57.2578 84.314,56.9922 Q83.7202,56.7109 83.0952,56.7109 Q81.7515,56.7109 81.064,57.7891 Q80.3765,58.8516 80.3765,60.9453 Q80.3765,63.0391 81.064,64.1172 Q81.7515,65.1797 83.0952,65.1797 Q83.7202,65.1797 84.314,64.9141 Q84.9077,64.6328 85.5327,64.0547 L85.5327,66.7734 Z " fill="#000000"/><text fill="#000000" font-family="sans-serif" font-size="12" font-style="italic" lengthAdjust="spacing" textLength="71.3555" x="110.6851" y="57.1387">&#171;Singleton&#187;</text><text fill="#000000" font-family="sans-serif" font-size="14" lengthAdjust="spacing" textLength="86.5977" x="103.064" y="72.9639">GameConfig</text><line style="stroke:#263238;stroke-width:0.5;" x1="23.5" x2="236.7256" y1="81.2656" y2="81.2656"/><rect fill="none" height="6" style="stroke:#C82930;stroke-width:1;" width="6" x="30.5" y="91.9141"/><text fill="#000000" font-family="sans-serif" font-size="14" lengthAdjust="spacing" text-decoration="underline" textLength="155.0732" x="42.5" y="98.2607">instance: GameConfig</text><line style="stroke:#263238;stroke-width:0.5;" x1="23.5" x2="236.7256" y1="105.5625" y2="105.5625"/><ellipse cx="33.5" cy="119.2109" fill="#84BE84" rx="3" ry="3" style="stroke:#038048;stroke-width:1;"/><text fill="#000000" font-family="sans-serif" font-size="14" lengthAdjust="spacing" text-decoration="underline" textLength="189.2256" x="42.5" y="122.5576">getInstance(): GameConfig</text><ellipse cx="33.5" cy="135.5078" fill="#84BE84" rx="3" ry="3" style="stroke:#038048;stroke-width:1;"/><text fill="#000000" font-family="sans-serif" font-size="14" lengthAdjust="spacing" textLength="155.8799" x="42.5" y="138.8545">getMaxHandSize(): int</text></g><!--class GameModel--><g class="entity" data-entity="GameModel" data-source-line="19" data-uid="ent0005" id="entity_GameModel"><rect fill="#FFFFFF" height="105.1563" rx="2.5" ry="2.5" style="stroke:#263238;stroke-width:0.5;" width="258.0664" x="275" y="230"/><ellipse cx="357.9268" cy="250.1328" fill="#ADD1B2" rx="11" ry="11" style="stroke:#181818;stroke-width:1;"/><path d="M360.8955,255.7734 Q360.3174,256.0703 359.6768,256.2109 Q359.0361,256.3672 358.333,256.3672 Q355.833,256.3672 354.5049,254.7266 Q353.1924,253.0703 353.1924,249.9453 Q353.1924,246.8203 354.5049,245.1641 Q355.833,243.5078 358.333,243.5078 Q359.0361,243.5078 359.6768,243.6641 Q360.333,243.8203 360.8955,244.1172 L360.8955,246.8359 Q360.2705,246.2578 359.6768,245.9922 Q359.083,245.7109 358.458,245.7109 Q357.1143,245.7109 356.4268,246.7891 Q355.7393,247.8516 355.7393,249.9453 Q355.7393,252.0391 356.4268,253.1172 Q357.1143,254.1797 358.458,254.1797 Q359.083,254.1797 359.6768,253.9141 Q360.2705,253.6328 360.8955,253.0547 L360.8955,255.7734 Z " fill="#000000"/><text fill="#000000" font-family="sans-serif" font-size="12" font-style="italic" lengthAdjust="spacing" textLength="50.8418" x="394.8623" y="246.1387">&#171;Model&#187;</text><text fill="#000000" font-family="sans-serif" font-size="14" lengthAdjust="spacing" textLength="83.7129" x="378.4268" y="261.9639">GameModel</text><line style="stroke:#263238;stroke-width:0.5;" x1="276" x2="532.0664" y1="270.2656" y2="270.2656"/><rect fill="none" height="6" style="stroke:#C82930;stroke-width:1;" width="6" x="283" y="280.9141"/><text fill="#000000" font-family="sans-serif" font-size="14" lengthAdjust="spacing" textLength="232.0664" x="295" y="287.2607">observers: List&lt;GameObserver&gt;</text><line style="stroke:#263238;stroke-width:0.5;" x1="276" x2="532.0664" y1="294.5625" y2="294.5625"/><ellipse cx="286" cy="308.2109" fill="#84BE84" rx="3" ry="3" style="stroke:#038048;stroke-width:1;"/><text fill="#000000" font-family="sans-serif" font-size="14" lengthAdjust="spacing" textLength="122.4727" x="295" y="311.5576">notifyObservers()</text><ellipse cx="286" cy="324.5078" fill="#84BE84" rx="3" ry="3" style="stroke:#038048;stroke-width:1;"/><text fill="#000000" font-family="sans-serif" font-size="14" lengthAdjust="spacing" textLength="117.6533" x="295" y="327.8545">playActionCard()</text></g><!--class GameObserver--><g class="entity" data-entity="GameObserver" data-source-line="25" data-uid="ent0006" id="entity_GameObserver"><rect fill="#FFFFFF" height="72.5625" rx="2.5" ry="2.5" style="stroke:#263238;stroke-width:0.5;" width="195.5859" x="177" y="441"/><ellipse cx="217.9576" cy="461.1328" fill="#B4A7E5" rx="11" ry="11" style="stroke:#181818;stroke-width:1;"/><path d="M213.8795,456.8984 L213.8795,454.7422 L221.2701,454.7422 L221.2701,456.8984 L218.8014,456.8984 L218.8014,464.9766 L221.2701,464.9766 L221.2701,467.1328 L213.8795,467.1328 L213.8795,464.9766 L216.3482,464.9766 L216.3482,456.8984 L213.8795,456.8984 Z " fill="#000000"/><text fill="#000000" font-family="sans-serif" font-size="12" font-style="italic" lengthAdjust="spacing" textLength="69.8613" x="255.7465" y="457.1387">&#171;Observer&#187;</text><text fill="#000000" font-family="sans-serif" font-size="14" font-style="italic" lengthAdjust="spacing" textLength="105.9023" x="237.726" y="472.9639">GameObserver</text><line style="stroke:#263238;stroke-width:0.5;" x1="178" x2="371.5859" y1="481.2656" y2="481.2656"/><line style="stroke:#263238;stroke-width:0.5;" x1="178" x2="371.5859" y1="489.2656" y2="489.2656"/><ellipse cx="188" cy="502.9141" fill="#84BE84" rx="3" ry="3" style="stroke:#038048;stroke-width:1;"/><text fill="#000000" font-family="sans-serif" font-size="14" lengthAdjust="spacing" textLength="169.5859" x="197" y="506.2607">onGameStateChanged()</text></g><!--class DealGameFrame--><g class="entity" data-entity="DealGameFrame" data-source-line="29" data-uid="ent0007" id="entity_DealGameFrame"><rect fill="#FFFFFF" height="72.5625" rx="2.5" ry="2.5" style="stroke:#263238;stroke-width:0.5;" width="150.1797" x="90" y="246"/><ellipse cx="105" cy="266.1328" fill="#ADD1B2" rx="11" ry="11" style="stroke:#181818;stroke-width:1;"/><path d="M107.9688,271.7734 Q107.3906,272.0703 106.75,272.2109 Q106.1094,272.3672 105.4063,272.3672 Q102.9063,272.3672 101.5781,270.7266 Q100.2656,269.0703 100.2656,265.9453 Q100.2656,262.8203 101.5781,261.1641 Q102.9063,259.5078 105.4063,259.5078 Q106.1094,259.5078 106.75,259.6641 Q107.4063,259.8203 107.9688,260.1172 L107.9688,262.8359 Q107.3438,262.2578 106.75,261.9922 Q106.1563,261.7109 105.5313,261.7109 Q104.1875,261.7109 103.5,262.7891 Q102.8125,263.8516 102.8125,265.9453 Q102.8125,268.0391 103.5,269.1172 Q104.1875,270.1797 105.5313,270.1797 Q106.1563,270.1797 106.75,269.9141 Q107.3438,269.6328 107.9688,269.0547 L107.9688,271.7734 Z " fill="#000000"/><text fill="#000000" font-family="sans-serif" font-size="12" font-style="italic" lengthAdjust="spacing" textLength="43.5527" x="156.3135" y="262.1387">&#171;View&#187;</text><text fill="#000000" font-family="sans-serif" font-size="14" lengthAdjust="spacing" textLength="118.1797" x="119" y="277.9639">DealGameFrame</text><line style="stroke:#263238;stroke-width:0.5;" x1="91" x2="239.1797" y1="286.2656" y2="286.2656"/><line style="stroke:#263238;stroke-width:0.5;" x1="91" x2="239.1797" y1="294.2656" y2="294.2656"/><ellipse cx="101" cy="307.9141" fill="#84BE84" rx="3" ry="3" style="stroke:#038048;stroke-width:1;"/><text fill="#000000" font-family="sans-serif" font-size="14" lengthAdjust="spacing" textLength="75.1338" x="110" y="311.2607">refreshUI()</text></g><!--class GameController--><g class="entity" data-entity="GameController" data-source-line="33" data-uid="ent0008" id="entity_GameController"><rect fill="#FFFFFF" height="72.5625" rx="2.5" ry="2.5" style="stroke:#263238;stroke-width:0.5;" width="164.4551" x="568" y="246"/><ellipse cx="592.7216" cy="266.1328" fill="#ADD1B2" rx="11" ry="11" style="stroke:#181818;stroke-width:1;"/><path d="M595.6903,271.7734 Q595.1122,272.0703 594.4716,272.2109 Q593.831,272.3672 593.1278,272.3672 Q590.6278,272.3672 589.2997,270.7266 Q587.9872,269.0703 587.9872,265.9453 Q587.9872,262.8203 589.2997,261.1641 Q590.6278,259.5078 593.1278,259.5078 Q593.831,259.5078 594.4716,259.6641 Q595.1278,259.8203 595.6903,260.1172 L595.6903,262.8359 Q595.0653,262.2578 594.4716,261.9922 Q593.8778,261.7109 593.2528,261.7109 Q591.9091,261.7109 591.2216,262.7891 Q590.5341,263.8516 590.5341,265.9453 Q590.5341,268.0391 591.2216,269.1172 Q591.9091,270.1797 593.2528,270.1797 Q593.8778,270.1797 594.4716,269.9141 Q595.0653,269.6328 595.6903,269.0547 L595.6903,271.7734 Z " fill="#000000"/><text fill="#000000" font-family="sans-serif" font-size="12" font-style="italic" lengthAdjust="spacing" textLength="74.1035" x="627.256" y="262.1387">&#171;Controller&#187;</text><text fill="#000000" font-family="sans-serif" font-size="14" lengthAdjust="spacing" textLength="110.8516" x="608.8819" y="277.9639">GameController</text><line style="stroke:#263238;stroke-width:0.5;" x1="569" x2="731.4551" y1="286.2656" y2="286.2656"/><line style="stroke:#263238;stroke-width:0.5;" x1="569" x2="731.4551" y1="294.2656" y2="294.2656"/><ellipse cx="579" cy="307.9141" fill="#84BE84" rx="3" ry="3" style="stroke:#038048;stroke-width:1;"/><text fill="#000000" font-family="sans-serif" font-size="14" lengthAdjust="spacing" textLength="138.4551" x="588" y="311.2607">handlePlayerInput()</text></g><!--class TurnState--><g class="entity" data-entity="TurnState" data-source-line="43" data-uid="ent0012" id="entity_TurnState"><rect fill="#FFFFFF" height="88.8594" rx="2.5" ry="2.5" style="stroke:#263238;stroke-width:0.5;" width="121.2041" x="852.5" y="433"/><ellipse cx="876.5417" cy="453.1328" fill="#B4A7E5" rx="11" ry="11" style="stroke:#181818;stroke-width:1;"/><path d="M872.4636,448.8984 L872.4636,446.7422 L879.8542,446.7422 L879.8542,448.8984 L877.3855,448.8984 L877.3855,456.9766 L879.8542,456.9766 L879.8542,459.1328 L872.4636,459.1328 L872.4636,456.9766 L874.9324,456.9766 L874.9324,448.8984 L872.4636,448.8984 Z " fill="#000000"/><text fill="#000000" font-family="sans-serif" font-size="12" font-style="italic" lengthAdjust="spacing" textLength="46.5762" x="903.8186" y="449.1387">&#171;State&#187;</text><text fill="#000000" font-family="sans-serif" font-size="14" font-style="italic" lengthAdjust="spacing" textLength="69.1113" x="892.551" y="464.9639">TurnState</text><line style="stroke:#263238;stroke-width:0.5;" x1="853.5" x2="972.7041" y1="473.2656" y2="473.2656"/><line style="stroke:#263238;stroke-width:0.5;" x1="853.5" x2="972.7041" y1="481.2656" y2="481.2656"/><ellipse cx="863.5" cy="494.9141" fill="#84BE84" rx="3" ry="3" style="stroke:#038048;stroke-width:1;"/><text fill="#000000" font-family="sans-serif" font-size="14" lengthAdjust="spacing" textLength="95.2041" x="872.5" y="498.2607">handleDraw()</text><ellipse cx="863.5" cy="511.2109" fill="#84BE84" rx="3" ry="3" style="stroke:#038048;stroke-width:1;"/><text fill="#000000" font-family="sans-serif" font-size="14" lengthAdjust="spacing" textLength="87.835" x="872.5" y="514.5576">handlePlay()</text></g><!--class DrawState--><g class="entity" data-entity="DrawState" data-source-line="47" data-uid="ent0013" id="entity_DrawState"><rect fill="#FFFFFF" height="48" rx="2.5" ry="2.5" style="stroke:#263238;stroke-width:0.5;" width="105.623" x="788" y="583"/><ellipse cx="803" cy="599" fill="#ADD1B2" rx="11" ry="11" style="stroke:#181818;stroke-width:1;"/><path d="M805.9688,604.6406 Q805.3906,604.9375 804.75,605.0781 Q804.1094,605.2344 803.4063,605.2344 Q800.9063,605.2344 799.5781,603.5938 Q798.2656,601.9375 798.2656,598.8125 Q798.2656,595.6875 799.5781,594.0313 Q800.9063,592.375 803.4063,592.375 Q804.1094,592.375 804.75,592.5313 Q805.4063,592.6875 805.9688,592.9844 L805.9688,595.7031 Q805.3438,595.125 804.75,594.8594 Q804.1563,594.5781 803.5313,594.5781 Q802.1875,594.5781 801.5,595.6563 Q800.8125,596.7188 800.8125,598.8125 Q800.8125,600.9063 801.5,601.9844 Q802.1875,603.0469 803.5313,603.0469 Q804.1563,603.0469 804.75,602.7813 Q805.3438,602.5 805.9688,601.9219 L805.9688,604.6406 Z " fill="#000000"/><text fill="#000000" font-family="sans-serif" font-size="14" lengthAdjust="spacing" textLength="73.623" x="817" y="603.8467">DrawState</text><line style="stroke:#263238;stroke-width:0.5;" x1="789" x2="892.623" y1="615" y2="615"/><line style="stroke:#263238;stroke-width:0.5;" x1="789" x2="892.623" y1="623" y2="623"/></g><!--class PlayState--><g class="entity" data-entity="PlayState" data-source-line="48" data-uid="ent0015" id="entity_PlayState"><rect fill="#FFFFFF" height="48" rx="2.5" ry="2.5" style="stroke:#263238;stroke-width:0.5;" width="98.2539" x="929" y="583"/><ellipse cx="944" cy="599" fill="#ADD1B2" rx="11" ry="11" style="stroke:#181818;stroke-width:1;"/><path d="M946.9688,604.6406 Q946.3906,604.9375 945.75,605.0781 Q945.1094,605.2344 944.4063,605.2344 Q941.9063,605.2344 940.5781,603.5938 Q939.2656,601.9375 939.2656,598.8125 Q939.2656,595.6875 940.5781,594.0313 Q941.9063,592.375 944.4063,592.375 Q945.1094,592.375 945.75,592.5313 Q946.4063,592.6875 946.9688,592.9844 L946.9688,595.7031 Q946.3438,595.125 945.75,594.8594 Q945.1563,594.5781 944.5313,594.5781 Q943.1875,594.5781 942.5,595.6563 Q941.8125,596.7188 941.8125,598.8125 Q941.8125,600.9063 942.5,601.9844 Q943.1875,603.0469 944.5313,603.0469 Q945.1563,603.0469 945.75,602.7813 Q946.3438,602.5 946.9688,601.9219 L946.9688,604.6406 Z " fill="#000000"/><text fill="#000000" font-family="sans-serif" font-size="14" lengthAdjust="spacing" textLength="66.2539" x="958" y="603.8467">PlayState</text><line style="stroke:#263238;stroke-width:0.5;" x1="930" x2="1026.2539" y1="615" y2="615"/><line style="stroke:#263238;stroke-width:0.5;" x1="930" x2="1026.2539" y1="623" y2="623"/></g><!--class DiscardState--><g class="entity" data-entity="DiscardState" data-source-line="49" data-uid="ent0017" id="entity_DiscardState"><rect fill="#FFFFFF" height="48" rx="2.5" ry="2.5" style="stroke:#263238;stroke-width:0.5;" width="121.9404" x="1062" y="583"/><ellipse cx="1077" cy="599" fill="#ADD1B2" rx="11" ry="11" style="stroke:#181818;stroke-width:1;"/><path d="M1079.9688,604.6406 Q1079.3906,604.9375 1078.75,605.0781 Q1078.1094,605.2344 1077.4063,605.2344 Q1074.9063,605.2344 1073.5781,603.5938 Q1072.2656,601.9375 1072.2656,598.8125 Q1072.2656,595.6875 1073.5781,594.0313 Q1074.9063,592.375 1077.4063,592.375 Q1078.1094,592.375 1078.75,592.5313 Q1079.4063,592.6875 1079.9688,592.9844 L1079.9688,595.7031 Q1079.3438,595.125 1078.75,594.8594 Q1078.1563,594.5781 1077.5313,594.5781 Q1076.1875,594.5781 1075.5,595.6563 Q1074.8125,596.7188 1074.8125,598.8125 Q1074.8125,600.9063 1075.5,601.9844 Q1076.1875,603.0469 1077.5313,603.0469 Q1078.1563,603.0469 1078.75,602.7813 Q1079.3438,602.5 1079.9688,601.9219 L1079.9688,604.6406 Z " fill="#000000"/><text fill="#000000" font-family="sans-serif" font-size="14" lengthAdjust="spacing" textLength="89.9404" x="1091" y="603.8467">DiscardState</text><line style="stroke:#263238;stroke-width:0.5;" x1="1063" x2="1182.9404" y1="615" y2="615"/><line style="stroke:#263238;stroke-width:0.5;" x1="1063" x2="1182.9404" y1="623" y2="623"/></g><!--class GameFacade--><g class="entity" data-entity="GameFacade" data-source-line="56" data-uid="ent0021" id="entity_GameFacade"><rect fill="#FFFFFF" height="88.8594" rx="2.5" ry="2.5" style="stroke:#263238;stroke-width:0.5;" width="126.3584" x="341" y="49"/><ellipse cx="357.0222" cy="69.1328" fill="#ADD1B2" rx="11" ry="11" style="stroke:#181818;stroke-width:1;"/><path d="M359.9909,74.7734 Q359.4128,75.0703 358.7722,75.2109 Q358.1315,75.3672 357.4284,75.3672 Q354.9284,75.3672 353.6003,73.7266 Q352.2878,72.0703 352.2878,68.9453 Q352.2878,65.8203 353.6003,64.1641 Q354.9284,62.5078 357.4284,62.5078 Q358.1315,62.5078 358.7722,62.6641 Q359.4284,62.8203 359.9909,63.1172 L359.9909,65.8359 Q359.3659,65.2578 358.7722,64.9922 Q358.1784,64.7109 357.5534,64.7109 Q356.2097,64.7109 355.5222,65.7891 Q354.8347,66.8516 354.8347,68.9453 Q354.8347,71.0391 355.5222,72.1172 Q356.2097,73.1797 357.5534,73.1797 Q358.1784,73.1797 358.7722,72.9141 Q359.3659,72.6328 359.9909,72.0547 L359.9909,74.7734 Z " fill="#000000"/><text fill="#000000" font-family="sans-serif" font-size="12" font-style="italic" lengthAdjust="spacing" textLength="58.0195" x="388.283" y="65.1387">&#171;Facade&#187;</text><text fill="#000000" font-family="sans-serif" font-size="14" lengthAdjust="spacing" textLength="92.0869" x="371.2493" y="80.9639">GameFacade</text><line style="stroke:#263238;stroke-width:0.5;" x1="342" x2="466.3584" y1="89.2656" y2="89.2656"/><line style="stroke:#263238;stroke-width:0.5;" x1="342" x2="466.3584" y1="97.2656" y2="97.2656"/><ellipse cx="352" cy="110.9141" fill="#84BE84" rx="3" ry="3" style="stroke:#038048;stroke-width:1;"/><text fill="#000000" font-family="sans-serif" font-size="14" lengthAdjust="spacing" textLength="100.3584" x="361" y="114.2607">playProperty()</text><ellipse cx="352" cy="127.2109" fill="#84BE84" rx="3" ry="3" style="stroke:#038048;stroke-width:1;"/><text fill="#000000" font-family="sans-serif" font-size="14" lengthAdjust="spacing" textLength="69.3506" x="361" y="130.5576">endTurn()</text></g><!--class AiTurnStrategy--><g class="entity" data-entity="AiTurnStrategy" data-source-line="65" data-uid="ent0024" id="entity_AiTurnStrategy"><rect fill="#FFFFFF" height="72.5625" rx="2.5" ry="2.5" style="stroke:#263238;stroke-width:0.5;" width="137.5059" x="1539" y="246"/><ellipse cx="1554" cy="266.1328" fill="#B4A7E5" rx="11" ry="11" style="stroke:#181818;stroke-width:1;"/><path d="M1549.9219,261.8984 L1549.9219,259.7422 L1557.3125,259.7422 L1557.3125,261.8984 L1554.8438,261.8984 L1554.8438,269.9766 L1557.3125,269.9766 L1557.3125,272.1328 L1549.9219,272.1328 L1549.9219,269.9766 L1552.3906,269.9766 L1552.3906,261.8984 L1549.9219,261.8984 Z " fill="#000000"/><text fill="#000000" font-family="sans-serif" font-size="12" font-style="italic" lengthAdjust="spacing" textLength="66.2285" x="1587.6387" y="262.1387">&#171;Strategy&#187;</text><text fill="#000000" font-family="sans-serif" font-size="14" font-style="italic" lengthAdjust="spacing" textLength="105.5059" x="1568" y="277.9639">AiTurnStrategy</text><line style="stroke:#263238;stroke-width:0.5;" x1="1540" x2="1675.5059" y1="286.2656" y2="286.2656"/><line style="stroke:#263238;stroke-width:0.5;" x1="1540" x2="1675.5059" y1="294.2656" y2="294.2656"/><ellipse cx="1550" cy="307.9141" fill="#84BE84" rx="3" ry="3" style="stroke:#038048;stroke-width:1;"/><text fill="#000000" font-family="sans-serif" font-size="14" lengthAdjust="spacing" textLength="99.1621" x="1559" y="311.2607">executeTurn()</text></g><!--class DefaultAiStrategy--><g class="entity" data-entity="DefaultAiStrategy" data-source-line="68" data-uid="ent0025" id="entity_DefaultAiStrategy"><rect fill="#FFFFFF" height="48" rx="2.5" ry="2.5" style="stroke:#263238;stroke-width:0.5;" width="156.6055" x="1529.5" y="453.5"/><ellipse cx="1544.5" cy="469.5" fill="#ADD1B2" rx="11" ry="11" style="stroke:#181818;stroke-width:1;"/><path d="M1547.4688,475.1406 Q1546.8906,475.4375 1546.25,475.5781 Q1545.6094,475.7344 1544.9063,475.7344 Q1542.4063,475.7344 1541.0781,474.0938 Q1539.7656,472.4375 1539.7656,469.3125 Q1539.7656,466.1875 1541.0781,464.5313 Q1542.4063,462.875 1544.9063,462.875 Q1545.6094,462.875 1546.25,463.0313 Q1546.9063,463.1875 1547.4688,463.4844 L1547.4688,466.2031 Q1546.8438,465.625 1546.25,465.3594 Q1545.6563,465.0781 1545.0313,465.0781 Q1543.6875,465.0781 1543,466.1563 Q1542.3125,467.2188 1542.3125,469.3125 Q1542.3125,471.4063 1543,472.4844 Q1543.6875,473.5469 1545.0313,473.5469 Q1545.6563,473.5469 1546.25,473.2813 Q1546.8438,473 1547.4688,472.4219 L1547.4688,475.1406 Z " fill="#000000"/><text fill="#000000" font-family="sans-serif" font-size="14" lengthAdjust="spacing" textLength="124.6055" x="1558.5" y="474.3467">DefaultAiStrategy</text><line style="stroke:#263238;stroke-width:0.5;" x1="1530.5" x2="1685.1055" y1="485.5" y2="485.5"/><line style="stroke:#263238;stroke-width:0.5;" x1="1530.5" x2="1685.1055" y1="493.5" y2="493.5"/></g><!--class AiPlayer--><g class="entity" data-entity="AiPlayer" data-source-line="70" data-uid="ent0027" id="entity_AiPlayer"><rect fill="#FFFFFF" height="64.2969" rx="2.5" ry="2.5" style="stroke:#263238;stroke-width:0.5;" width="199.0654" x="1508.5" y="61.5"/><ellipse cx="1575.2666" cy="77.5" fill="#ADD1B2" rx="11" ry="11" style="stroke:#181818;stroke-width:1;"/><path d="M1578.2354,83.1406 Q1577.6572,83.4375 1577.0166,83.5781 Q1576.376,83.7344 1575.6729,83.7344 Q1573.1729,83.7344 1571.8447,82.0938 Q1570.5322,80.4375 1570.5322,77.3125 Q1570.5322,74.1875 1571.8447,72.5313 Q1573.1729,70.875 1575.6729,70.875 Q1576.376,70.875 1577.0166,71.0313 Q1577.6729,71.1875 1578.2354,71.4844 L1578.2354,74.2031 Q1577.6104,73.625 1577.0166,73.3594 Q1576.4229,73.0781 1575.7979,73.0781 Q1574.4541,73.0781 1573.7666,74.1563 Q1573.0791,75.2188 1573.0791,77.3125 Q1573.0791,79.4063 1573.7666,80.4844 Q1574.4541,81.5469 1575.7979,81.5469 Q1576.4229,81.5469 1577.0166,81.2813 Q1577.6104,81 1578.2354,80.4219 L1578.2354,83.1406 Z " fill="#000000"/><text fill="#000000" font-family="sans-serif" font-size="14" lengthAdjust="spacing" textLength="57.0322" x="1595.7666" y="82.3467">AiPlayer</text><line style="stroke:#263238;stroke-width:0.5;" x1="1509.5" x2="1706.5654" y1="93.5" y2="93.5"/><rect fill="none" height="6" style="stroke:#C82930;stroke-width:1;" width="6" x="1516.5" y="104.1484"/><text fill="#000000" font-family="sans-serif" font-size="14" lengthAdjust="spacing" textLength="173.0654" x="1528.5" y="110.4951">strategy: AiTurnStrategy</text><line style="stroke:#263238;stroke-width:0.5;" x1="1509.5" x2="1706.5654" y1="117.7969" y2="117.7969"/></g><!--class DeckFactory--><g class="entity" data-entity="DeckFactory" data-source-line="78" data-uid="ent0030" id="entity_DeckFactory"><rect fill="#FFFFFF" height="72.5625" rx="2.5" ry="2.5" style="stroke:#263238;stroke-width:0.5;" width="264.8477" x="1764.5" y="57"/><ellipse cx="1848.8623" cy="77.1328" fill="#ADD1B2" rx="11" ry="11" style="stroke:#181818;stroke-width:1;"/><path d="M1851.8311,82.7734 Q1851.2529,83.0703 1850.6123,83.2109 Q1849.9717,83.3672 1849.2686,83.3672 Q1846.7686,83.3672 1845.4404,81.7266 Q1844.1279,80.0703 1844.1279,76.9453 Q1844.1279,73.8203 1845.4404,72.1641 Q1846.7686,70.5078 1849.2686,70.5078 Q1849.9717,70.5078 1850.6123,70.6641 Q1851.2686,70.8203 1851.8311,71.1172 L1851.8311,73.8359 Q1851.2061,73.2578 1850.6123,72.9922 Q1850.0186,72.7109 1849.3936,72.7109 Q1848.0498,72.7109 1847.3623,73.7891 Q1846.6748,74.8516 1846.6748,76.9453 Q1846.6748,79.0391 1847.3623,80.1172 Q1848.0498,81.1797 1849.3936,81.1797 Q1850.0186,81.1797 1850.6123,80.9141 Q1851.2061,80.6328 1851.8311,80.0547 L1851.8311,82.7734 Z " fill="#000000"/><text fill="#000000" font-family="sans-serif" font-size="12" font-style="italic" lengthAdjust="spacing" textLength="59.748" x="1883.2998" y="73.1387">&#171;Factory&#187;</text><text fill="#000000" font-family="sans-serif" font-size="14" lengthAdjust="spacing" textLength="87.623" x="1869.3623" y="88.9639">DeckFactory</text><line style="stroke:#263238;stroke-width:0.5;" x1="1765.5" x2="2028.3477" y1="97.2656" y2="97.2656"/><line style="stroke:#263238;stroke-width:0.5;" x1="1765.5" x2="2028.3477" y1="105.2656" y2="105.2656"/><ellipse cx="1775.5" cy="118.9141" fill="#84BE84" rx="3" ry="3" style="stroke:#038048;stroke-width:1;"/><text fill="#000000" font-family="sans-serif" font-size="14" lengthAdjust="spacing" textLength="238.8477" x="1784.5" y="122.2607">createShuffledDeck(): List&lt;Card&gt;</text></g><!--class PlayCardCommand--><g class="entity" data-entity="PlayCardCommand" data-source-line="85" data-uid="ent0032" id="entity_PlayCardCommand"><rect fill="#FFFFFF" height="72.5625" rx="2.5" ry="2.5" style="stroke:#263238;stroke-width:0.5;" width="166.1484" x="1242" y="441"/><ellipse cx="1257" cy="461.1328" fill="#B4A7E5" rx="11" ry="11" style="stroke:#181818;stroke-width:1;"/><path d="M1252.9219,456.8984 L1252.9219,454.7422 L1260.3125,454.7422 L1260.3125,456.8984 L1257.8438,456.8984 L1257.8438,464.9766 L1260.3125,464.9766 L1260.3125,467.1328 L1252.9219,467.1328 L1252.9219,464.9766 L1255.3906,464.9766 L1255.3906,456.8984 L1252.9219,456.8984 Z " fill="#000000"/><text fill="#000000" font-family="sans-serif" font-size="12" font-style="italic" lengthAdjust="spacing" textLength="76.4883" x="1299.8301" y="457.1387">&#171;Command&#187;</text><text fill="#000000" font-family="sans-serif" font-size="14" font-style="italic" lengthAdjust="spacing" textLength="134.1484" x="1271" y="472.9639">PlayCardCommand</text><line style="stroke:#263238;stroke-width:0.5;" x1="1243" x2="1407.1484" y1="481.2656" y2="481.2656"/><line style="stroke:#263238;stroke-width:0.5;" x1="1243" x2="1407.1484" y1="489.2656" y2="489.2656"/><ellipse cx="1253" cy="502.9141" fill="#84BE84" rx="3" ry="3" style="stroke:#038048;stroke-width:1;"/><text fill="#000000" font-family="sans-serif" font-size="14" lengthAdjust="spacing" textLength="67.1084" x="1262" y="506.2607">execute()</text></g><!--class PlayActionCommand--><g class="entity" data-entity="PlayActionCommand" data-source-line="88" data-uid="ent0033" id="entity_PlayActionCommand"><rect fill="#FFFFFF" height="48" rx="2.5" ry="2.5" style="stroke:#263238;stroke-width:0.5;" width="177.2432" x="1239.5" y="583"/><ellipse cx="1254.5" cy="599" fill="#ADD1B2" rx="11" ry="11" style="stroke:#181818;stroke-width:1;"/><path d="M1257.4688,604.6406 Q1256.8906,604.9375 1256.25,605.0781 Q1255.6094,605.2344 1254.9063,605.2344 Q1252.4063,605.2344 1251.0781,603.5938 Q1249.7656,601.9375 1249.7656,598.8125 Q1249.7656,595.6875 1251.0781,594.0313 Q1252.4063,592.375 1254.9063,592.375 Q1255.6094,592.375 1256.25,592.5313 Q1256.9063,592.6875 1257.4688,592.9844 L1257.4688,595.7031 Q1256.8438,595.125 1256.25,594.8594 Q1255.6563,594.5781 1255.0313,594.5781 Q1253.6875,594.5781 1253,595.6563 Q1252.3125,596.7188 1252.3125,598.8125 Q1252.3125,600.9063 1253,601.9844 Q1253.6875,603.0469 1255.0313,603.0469 Q1255.6563,603.0469 1256.25,602.7813 Q1256.8438,602.5 1257.4688,601.9219 L1257.4688,604.6406 Z " fill="#000000"/><text fill="#000000" font-family="sans-serif" font-size="14" lengthAdjust="spacing" textLength="145.2432" x="1268.5" y="603.8467">PlayActionCommand</text><line style="stroke:#263238;stroke-width:0.5;" x1="1240.5" x2="1415.7432" y1="615" y2="615"/><line style="stroke:#263238;stroke-width:0.5;" x1="1240.5" x2="1415.7432" y1="623" y2="623"/></g><!--reverse link GameModel to GameObserver--><g class="link" data-entity-1="GameModel" data-entity-2="GameObserver" data-source-line="37" data-uid="lnk9" id="link_GameModel_GameObserver"><path codeLine="37" d="M362.7633,345.1977 C340.4533,378.5877 318.66,411.18 298.85,440.82" fill="none" id="GameModel-backto-GameObserver" style="stroke:#263238;stroke-width:1;"/><polygon fill="none" points="369.43,335.22,362.7707,337.9866,362.7633,345.1977,369.4225,342.4311,369.43,335.22" style="stroke:#263238;stroke-width:1;"/></g><!--link DealGameFrame to GameObserver--><g class="link" data-entity-1="DealGameFrame" data-entity-2="GameObserver" data-source-line="38" data-uid="lnk10" id="link_DealGameFrame_GameObserver"><path codeLine="38" d="M185.43,319.35 C205.19,354.02 226.047,390.6016 245.767,425.2016" fill="none" id="DealGameFrame-to-GameObserver" style="stroke:#263238;stroke-width:1;stroke-dasharray:7,7;"/><polygon fill="none" points="254.68,440.84,250.9798,422.2306,240.5542,428.1726,254.68,440.84" style="stroke:#263238;stroke-width:1;"/></g><!--reverse link TurnState to DrawState--><g class="link" data-entity-1="TurnState" data-entity-2="DrawState" data-source-line="47" data-uid="lnk14" id="link_TurnState_DrawState"><path d="M879.5701,537.6941 C868.0801,558.0441 863.72,565.77 854.16,582.7" fill="none" id="TurnState-backto-DrawState" style="stroke:#263238;stroke-width:1;stroke-dasharray:7,7;"/><polygon fill="none" points="888.42,522.02,874.3454,534.7442,884.7948,540.6441,888.42,522.02" style="stroke:#263238;stroke-width:1;"/></g><!--reverse link TurnState to PlayState--><g class="link" data-entity-1="TurnState" data-entity-2="PlayState" data-source-line="48" data-uid="lnk16" id="link_TurnState_PlayState"><path d="M943.3626,538.0577 C953.7326,558.4077 957.49,565.77 966.12,582.7" fill="none" id="TurnState-backto-PlayState" style="stroke:#263238;stroke-width:1;stroke-dasharray:7,7;"/><polygon fill="none" points="935.19,522.02,938.0166,540.7819,948.7085,535.3336,935.19,522.02" style="stroke:#263238;stroke-width:1;"/></g><!--reverse link TurnState to DiscardState--><g class="link" data-entity-1="TurnState" data-entity-2="DiscardState" data-source-line="49" data-uid="lnk18" id="link_TurnState_DiscardState"><path d="M989.1266,524.7209 C1024.9866,546.4909 1053.88,564.03 1084.86,582.85" fill="none" id="TurnState-backto-DiscardState" style="stroke:#263238;stroke-width:1;stroke-dasharray:7,7;"/><polygon fill="none" points="973.74,515.38,986.0129,529.8498,992.2402,519.5921,973.74,515.38" style="stroke:#263238;stroke-width:1;"/></g><!--link GameModel to TurnState--><g class="link" data-entity-1="GameModel" data-entity-2="TurnState" data-source-line="51" data-uid="lnk19" id="link_GameModel_TurnState"><path codeLine="51" d="M533.31,329.32 C539.28,331.27 545.2,333.18 551,335 C637.72,362.26 663.5,356.49 748,390 C783.63,404.13 816.3846,420.797 846.9246,437.757" fill="none" id="GameModel-to-TurnState" style="stroke:#263238;stroke-width:1;"/><polygon fill="#263238" points="852.17,440.67,846.2438,432.8036,847.7988,438.2425,842.3599,439.7975,852.17,440.67" style="stroke:#263238;stroke-width:1;"/><text fill="#000000" font-family="sans-serif" font-size="13" lengthAdjust="spacing" textLength="47.4106" x="725" y="378.0669">current</text></g><!--link GameFacade to GameModel--><g class="link" data-entity-1="GameFacade" data-entity-2="GameModel" data-source-line="60" data-uid="lnk22" id="link_GameFacade_GameModel"><path codeLine="60" d="M404,138.34 C404,165.76 404,195.21 404,223.97" fill="none" id="GameFacade-to-GameModel" style="stroke:#263238;stroke-width:1;"/><polygon fill="#263238" points="404,229.97,408,220.97,404,224.97,400,220.97,404,229.97" style="stroke:#263238;stroke-width:1;"/></g><!--reverse link AiTurnStrategy to DefaultAiStrategy--><g class="link" data-entity-1="AiTurnStrategy" data-entity-2="DefaultAiStrategy" data-source-line="68" data-uid="lnk26" id="link_AiTurnStrategy_DefaultAiStrategy"><path d="M1608,337.35 C1608,376.48 1608,420 1608,453.27" fill="none" id="AiTurnStrategy-backto-DefaultAiStrategy" style="stroke:#263238;stroke-width:1;stroke-dasharray:7,7;"/><polygon fill="none" points="1608,319.35,1602,337.35,1614,337.35,1608,319.35" style="stroke:#263238;stroke-width:1;"/></g><!--link AiPlayer to AiTurnStrategy--><g class="link" data-entity-1="AiPlayer" data-entity-2="AiTurnStrategy" data-source-line="73" data-uid="lnk28" id="link_AiPlayer_AiTurnStrategy"><path codeLine="73" d="M1608,125.8 C1608,158.97 1608,205.25 1608,239.95" fill="none" id="AiPlayer-to-AiTurnStrategy" style="stroke:#263238;stroke-width:1;"/><polygon fill="#263238" points="1608,245.95,1612,236.95,1608,240.95,1604,236.95,1608,245.95" style="stroke:#263238;stroke-width:1;"/></g><!--reverse link PlayCardCommand to PlayActionCommand--><g class="link" data-entity-1="PlayCardCommand" data-entity-2="PlayActionCommand" data-source-line="88" data-uid="lnk34" id="link_PlayCardCommand_PlayActionCommand"><path d="M1326.2581,532.0151 C1326.7681,553.9651 1327,563.53 1327.45,582.73" fill="none" id="PlayCardCommand-backto-PlayActionCommand" style="stroke:#263238;stroke-width:1;stroke-dasharray:7,7;"/><polygon fill="none" points="1325.84,514.02,1320.2597,532.1545,1332.2565,531.8758,1325.84,514.02" style="stroke:#263238;stroke-width:1;"/></g><!--link GameController to PlayCardCommand--><g class="link" data-entity-1="GameController" data-entity-2="PlayCardCommand" data-source-line="90" data-uid="lnk35" id="link_GameController_PlayCardCommand"><path codeLine="90" d="M732.28,288.83 C842.57,298.31 1042.67,323.8 1200,390 C1229.92,402.59 1255.191,419.383 1278.321,437.243" fill="none" id="GameController-to-PlayCardCommand" style="stroke:#263238;stroke-width:1;"/><polygon fill="#263238" points="1283.07,440.91,1278.3911,432.2435,1279.1125,437.8542,1273.5018,438.5755,1283.07,440.91" style="stroke:#263238;stroke-width:1;"/><text fill="#000000" font-family="sans-serif" font-size="13" lengthAdjust="spacing" textLength="50.6733" x="1173" y="378.0669">triggers</text></g><!--SRC=[ZLJTRjCm6BtlKrX3WavJ8x71cAggKaaPL5h5H65SUycNr9fZLxP3LqQVWMVWZeVWTU0vy6Ud-P-W5waJ7nz_vnpxqtTCRAYY6T5h6iij4ob9ADSmqELCnAdMv650xEyrZUvI9NCHXv9BHJwlcG4tCrDARlt79wVdPwTd5tw1L36evlVzOF2CF0_8okx6mKX1_lpyyVlNzy76ijCKo54eHS9ICYmHnqT50RwOjpI30ZEPbA3fj03XRqGUjA66HNl2X1s92CQrTINkfCAbO1O5T7Zy2DXYblJ-7HNnYdrrC2QCczzxNQS1MTw45laY8EzlDQWle3hw4F6qdEvgMyeOk9Nc_bkoPB5AZyaLqsQ2-0FJj5Qfa8ObkyEC7XxNvZQSxcQHOLA4LCN5rDuztSDg0fNG24YTtHPKRbIlwOH8WRYLzH72DHKfz71wTNEW7B6NzcI19RnXi6sHAKWKwFMdnMCSHJ16ISvTLTLBYyhM4dEujcf1BSGcDrtAocuv6ZNakkbclK7mRTh4kCpFx5b6xPsSF-PAa2KLzYK3OUo1HbXvc2kR4UWfx7d6_ruXSqMtZHmhVGrXXTKMxJbPjk6k05rjL0FY-ly2pfcEx7dv1xPbwsWqhSaRaoXNogxophqCo2MDQDorRfNVwfqsa955wTBGOtkQGK4ocVX1opqyxjTARa2PNSC_436MrZ2lHeUbbq9ymUSOjR9AqbsdvDc2NCcKHHYpX_GaFMFUZ883u_R3Lirm3r5ke5FUuHebDETcnagYMXpDBTgtPyRyVMWq5Ls0ntsB_SRbEdIbXNBMl79P6gcwpdm0BNDbrOSAABOT5oL2MrdE8RexaBWmSTHo9a8EMAtp9E4GumfimwuNOZURrhlnHK12cMNscdJJSlsFl74-kv8AP4zeg1ov3rpOSjoeFxIUmAwhZbjmr09hqJTlKQtJeVFjKiR4A9QcjiCFzdy1]--></g></svg>